<?xml version="1.0" encoding="UTF-8"?>
<!DOCTYPE svg PUBLIC "-//W3C//DTD SVG 1.1//EN" "http://www.w3.org/Graphics/SVG/1.1/DTD/svg11.dtd">
<svg xmlns="http://www.w3.org/2000/svg" version="1.1" width="180px" height="214px" style="shape-rendering:geometricPrecision; text-rendering:geometricPrecision; image-rendering:optimizeQuality; fill-rule:evenodd; clip-rule:evenodd" xmlns:xlink="http://www.w3.org/1999/xlink">
<g><path style="opacity:1" fill="#a59e8c" d="M -0.5,-0.5 C 59.5,-0.5 119.5,-0.5 179.5,-0.5C 179.5,70.8333 179.5,142.167 179.5,213.5C 119.5,213.5 59.5,213.5 -0.5,213.5C -0.5,142.167 -0.5,70.8333 -0.5,-0.5 Z"/></g>
<g><path style="opacity:1" fill="#c4bfb4" d="M 10.5,5.5 C 9.5041,5.58577 8.67076,5.25244 8,4.5C 7.72158,5.4158 7.22158,6.08247 6.5,6.5C 6.92084,1.72348 8.25417,1.39014 10.5,5.5 Z"/></g>
<g><path style="opacity:1" fill="#c4beb3" d="M 100.5,6.5 C 98.9826,6.48944 97.8159,5.82277 97,4.5C 96.79,6.05814 96.29,7.39147 95.5,8.5C 95.053,1.37582 96.7197,0.709156 100.5,6.5 Z"/></g>
<g><path style="opacity:1" fill="#a7a08f" d="M 10.5,5.5 C 11.5846,7.58689 13.2512,8.92022 15.5,9.5C 15.9731,10.9063 16.9731,11.573 18.5,11.5C 18.9731,12.9063 19.9731,13.573 21.5,13.5C 21.9731,14.9063 22.9731,15.573 24.5,15.5C 24.9731,16.9063 25.9731,17.573 27.5,17.5C 30.5,21.1667 33.8333,24.5 37.5,27.5C 40.3,33.5672 42.3,39.9005 43.5,46.5C 45.3606,50.0147 44.6939,51.348 41.5,50.5C 36.9843,47.0734 31.9843,44.4068 26.5,42.5C 26.0269,41.0937 25.0269,40.427 23.5,40.5C 22.1667,38.5 20.5,36.8333 18.5,35.5C 18.573,33.9731 17.9063,32.9731 16.5,32.5C 16.573,30.9731 15.9063,29.9731 14.5,29.5C 10.2648,22.4643 7.5981,14.7977 6.5,6.5C 7.22158,6.08247 7.72158,5.4158 8,4.5C 8.67076,5.25244 9.5041,5.58577 10.5,5.5 Z"/></g>
<g><path style="opacity:1" fill="#a7a08e" d="M 100.5,6.5 C 101.262,8.26242 102.596,9.26242 104.5,9.5C 108.302,13.2371 112.635,16.2371 117.5,18.5C 119.833,21.5 122.5,24.1667 125.5,26.5C 125.75,28.674 126.75,30.3406 128.5,31.5C 130.793,38.6751 132.46,46.0085 133.5,53.5C 132.167,52.8333 131.167,51.8333 130.5,50.5C 124.83,46.663 118.83,43.3296 112.5,40.5C 110.833,38.1667 108.833,36.1667 106.5,34.5C 106.573,32.9731 105.906,31.9731 104.5,31.5C 103.674,28.5152 102.341,25.8485 100.5,23.5C 100.072,20.2154 99.0719,17.2154 97.5,14.5C 96.5418,12.6976 95.8751,10.6976 95.5,8.5C 96.29,7.39147 96.79,6.05814 97,4.5C 97.8159,5.82277 98.9826,6.48944 100.5,6.5 Z"/></g>
<g><path style="opacity:1" fill="#c4bfb4" d="M 10.5,5.5 C 12.7488,6.07978 14.4154,7.41311 15.5,9.5C 13.2512,8.92022 11.5846,7.58689 10.5,5.5 Z"/></g>
<g><path style="opacity:1" fill="#c4bfb4" d="M 100.5,6.5 C 102.404,6.73758 103.738,7.73758 104.5,9.5C 102.596,9.26242 101.262,8.26242 100.5,6.5 Z"/></g>
<g><path style="opacity:1" fill="#a7a08f" d="M 79.5,7.5 C 81.2818,17.4237 80.2818,27.0904 76.5,36.5C 73.8333,38.5 71.5,40.8333 69.5,43.5C 65.1638,45.332 61.1638,47.6654 57.5,50.5C 55.2433,50.9617 53.2433,51.9617 51.5,53.5C 50.5258,51.2573 50.1924,48.924 50.5,46.5C 51.6118,44.4006 52.2785,42.0673 52.5,39.5C 53.9166,34.3212 56.5832,29.9879 60.5,26.5C 62.5869,25.4154 63.9202,23.7488 64.5,21.5C 64.8333,20.5 65.5,19.8333 66.5,19.5C 70.1002,17.5698 73.1002,14.9031 75.5,11.5C 76.5,9.83333 77.8333,8.5 79.5,7.5 Z"/></g>
<g><path style="opacity:1" fill="#a7a18f" d="M 169.5,6.5 C 169.794,17.2136 168.128,27.547 164.5,37.5C 162.5,38.8333 160.833,40.5 159.5,42.5C 157.147,43.3403 155.147,44.6736 153.5,46.5C 153.158,47.3382 152.492,47.6716 151.5,47.5C 147.243,48.9617 143.243,50.9617 139.5,53.5C 139.167,52.6667 138.833,51.8333 138.5,51C 139.25,47.8365 139.916,44.6699 140.5,41.5C 142.737,34.0212 146.737,27.6878 152.5,22.5C 155.167,20.5 157.5,18.1667 159.5,15.5C 162.415,12.0413 165.748,9.04134 169.5,6.5 Z"/></g>
<g><path style="opacity:1" fill="#a59e8c" d="M 49.5,9.5 C 48.8966,29.161 48.5632,48.8277 48.5,68.5C 47.1685,60.1934 46.5019,51.5267 46.5,42.5C 46.6667,33.8333 46.8333,25.1667 47,16.5C 46.9698,13.6385 47.8031,11.3052 49.5,9.5 Z"/></g>
<g><path style="opacity:1" fill="#a59e8c" d="M 138.5,9.5 C 137.67,29.1547 137.337,48.8213 137.5,68.5C 135.527,59.2245 134.86,49.5578 135.5,39.5C 135.5,29.5 135.5,19.5 135.5,9.5C 136.5,9.5 137.5,9.5 138.5,9.5 Z"/></g>
<g><path style="opacity:1" fill="#c6c0b5" d="M 15.5,9.5 C 17.0269,9.42702 18.0269,10.0937 18.5,11.5C 16.9731,11.573 15.9731,10.9063 15.5,9.5 Z"/></g>
<g><path style="opacity:1" fill="#c5bfb5" d="M 18.5,11.5 C 20.0269,11.427 21.0269,12.0937 21.5,13.5C 19.9731,13.573 18.9731,12.9063 18.5,11.5 Z"/></g>
<g><path style="opacity:1" fill="#c3beb3" d="M 104.5,9.5 C 109.365,11.7629 113.698,14.7629 117.5,18.5C 112.635,16.2371 108.302,13.2371 104.5,9.5 Z"/></g>
<g><path style="opacity:1" fill="#c4beb4" d="M 21.5,13.5 C 23.0269,13.427 24.0269,14.0937 24.5,15.5C 22.9731,15.573 21.9731,14.9063 21.5,13.5 Z"/></g>
<g><path style="opacity:1" fill="#c5bfb5" d="M 24.5,15.5 C 26.0269,15.427 27.0269,16.0937 27.5,17.5C 25.9731,17.573 24.9731,16.9063 24.5,15.5 Z"/></g>
<g><path style="opacity:1" fill="#b2ac9e" d="M 75.5,11.5 C 73.1002,14.9031 70.1002,17.5698 66.5,19.5C 68.8998,16.0969 71.8998,13.4302 75.5,11.5 Z"/></g>
<g><path style="opacity:1" fill="#b9b4a7" d="M 97.5,14.5 C 99.0719,17.2154 100.072,20.2154 100.5,23.5C 98.5275,20.9164 97.5275,17.9164 97.5,14.5 Z"/></g>
<g><path style="opacity:1" fill="#b8b3a5" d="M 159.5,15.5 C 157.5,18.1667 155.167,20.5 152.5,22.5C 153.833,19.1667 156.167,16.8333 159.5,15.5 Z"/></g>
<g><path style="opacity:1" fill="#c5c0b5" d="M 27.5,17.5 C 31.8333,19.8333 35.1667,23.1667 37.5,27.5C 33.8333,24.5 30.5,21.1667 27.5,17.5 Z"/></g>
<g><path style="opacity:1" fill="#bab4a7" d="M 139.5,8.5 C 138.833,8.5 138.5,8.83333 138.5,9.5C 137.5,9.5 136.5,9.5 135.5,9.5C 135.5,19.5 135.5,29.5 135.5,39.5C 135.167,39.5 134.833,39.5 134.5,39.5C 134.334,29.1613 134.5,18.828 135,8.5C 136.616,7.19914 138.116,7.19914 139.5,8.5 Z"/></g>
<g><path style="opacity:1" fill="#c6c1b7" d="M 117.5,18.5 C 121.167,20.1667 123.833,22.8333 125.5,26.5C 122.5,24.1667 119.833,21.5 117.5,18.5 Z"/></g>
<g><path style="opacity:1" fill="#c4bfb4" d="M 169.5,6.5 C 170.693,6.97041 171.36,7.97041 171.5,9.5C 170.733,16.174 169.899,22.8407 169,29.5C 168.246,32.6844 166.746,35.3511 164.5,37.5C 168.128,27.547 169.794,17.2136 169.5,6.5 Z"/></g>
<g><path style="opacity:1" fill="#c4c0b5" d="M 76.5,36.5 C 80.2818,27.0904 81.2818,17.4237 79.5,7.5C 80.1499,7.19607 80.8165,6.86273 81.5,6.5C 82.4424,15.6336 81.609,24.6336 79,33.5C 78.6232,34.9423 77.7899,35.9423 76.5,36.5 Z"/></g>
<g><path style="opacity:1" fill="#c6c1b6" d="M 106.5,22.5 C 108.496,21.3122 109.329,21.9789 109,24.5C 108.292,23.6195 107.458,22.9528 106.5,22.5 Z"/></g>
<g><path style="opacity:1" fill="#b7b2a4" d="M 64.5,21.5 C 63.9202,23.7488 62.5869,25.4154 60.5,26.5C 61.0798,24.2512 62.4131,22.5846 64.5,21.5 Z"/></g>
<g><path style="opacity:1" fill="#bab4a7" d="M 17.5,20.5 C 20.4639,22.9619 23.2972,25.6286 26,28.5C 26.3333,27.8333 26.6667,27.1667 27,26.5C 28.3774,30.1446 30.044,33.478 32,36.5C 29.6351,33.1309 26.4685,30.9643 22.5,30C 23.1667,29.6667 23.8333,29.3333 24.5,29C 21.5532,26.5644 19.2199,23.7311 17.5,20.5 Z"/></g>
<g><path style="opacity:1" fill="#c4c0b5" d="M 70.5,24.5 C 71.3251,26.1252 70.9918,27.7918 69.5,29.5C 69.1667,29.3333 68.8333,29.1667 68.5,29C 69.2666,27.5295 69.9332,26.0295 70.5,24.5 Z"/></g>
<g><path style="opacity:1" fill="#bcb6aa" d="M 100.5,23.5 C 102.341,25.8485 103.674,28.5152 104.5,31.5C 102.127,29.4208 100.794,26.7541 100.5,23.5 Z"/></g>
<g><path style="opacity:1" fill="#c6c1b7" d="M 125.5,26.5 C 127.25,27.6594 128.25,29.326 128.5,31.5C 126.75,30.3406 125.75,28.674 125.5,26.5 Z"/></g>
<g><path style="opacity:1" fill="#c6c0b6" d="M 158.5,24.5 C 159.239,24.369 159.906,24.5357 160.5,25C 157.832,31.149 157.165,30.9823 158.5,24.5 Z"/></g>
<g><path style="opacity:1" fill="#bbb6a9" d="M 115.5,27.5 C 116.703,28.9425 117.203,30.6092 117,32.5C 115.184,31.6705 113.351,30.8372 111.5,30C 113.066,29.3918 114.4,28.5585 115.5,27.5 Z"/></g>
<g><path style="opacity:1" fill="#bfb9ac" d="M 14.5,29.5 C 15.9063,29.9731 16.573,30.9731 16.5,32.5C 15.0937,32.0269 14.427,31.0269 14.5,29.5 Z"/></g>
<g><path style="opacity:1" fill="#c3beb3" d="M 37.5,27.5 C 41.9818,32.9359 44.3152,39.2693 44.5,46.5C 44.1667,46.5 43.8333,46.5 43.5,46.5C 42.3,39.9005 40.3,33.5672 37.5,27.5 Z"/></g>
<g><path style="opacity:1" fill="#beb9ad" d="M 104.5,31.5 C 105.906,31.9731 106.573,32.9731 106.5,34.5C 105.094,34.0269 104.427,33.0269 104.5,31.5 Z"/></g>
<g><path style="opacity:1" fill="#c0baaf" d="M 16.5,32.5 C 17.9063,32.9731 18.573,33.9731 18.5,35.5C 17.0937,35.0269 16.427,34.0269 16.5,32.5 Z"/></g>
<g><path style="opacity:1" fill="#c4bfb4" d="M 128.5,31.5 C 131.534,35.9472 133.201,40.9472 133.5,46.5C 134.767,49.272 134.767,51.9387 133.5,54.5C 133.5,54.1667 133.5,53.8333 133.5,53.5C 132.46,46.0085 130.793,38.6751 128.5,31.5 Z"/></g>
<g><path style="opacity:1" fill="#beb9ad" d="M 106.5,34.5 C 108.833,36.1667 110.833,38.1667 112.5,40.5C 109.5,39.5 107.5,37.5 106.5,34.5 Z"/></g>
<g><path style="opacity:1" fill="#bdb8ac" d="M 18.5,35.5 C 20.5,36.8333 22.1667,38.5 23.5,40.5C 20.8333,39.8333 19.1667,38.1667 18.5,35.5 Z"/></g>
<g><path style="opacity:1" fill="#c6c2b7" d="M 149.5,36.5 C 151.337,36.6395 151.67,37.3061 150.5,38.5C 149.702,38.0431 149.369,37.3764 149.5,36.5 Z"/></g>
<g><path style="opacity:1" fill="#b7b1a3" d="M 50.5,8.5 C 49.8333,8.5 49.5,8.83333 49.5,9.5C 47.8031,11.3052 46.9698,13.6385 47,16.5C 46.8333,25.1667 46.6667,33.8333 46.5,42.5C 46.5019,51.5267 47.1685,60.1934 48.5,68.5C 47.8333,69.1667 47.1667,69.8333 46.5,70.5C 45.6733,65.3491 45.1733,60.0158 45,54.5C 43.6244,53.2949 42.4577,51.9616 41.5,50.5C 44.6939,51.348 45.3606,50.0147 43.5,46.5C 43.8333,46.5 44.1667,46.5 44.5,46.5C 45.3308,34.3401 45.8308,22.0068 46,9.5C 47.3466,7.5339 48.8466,7.20056 50.5,8.5 Z"/></g>
<g><path style="opacity:1" fill="#bfbaae" d="M 61.5,36.5 C 62.552,36.3505 63.552,36.5172 64.5,37C 62.714,37.7845 61.214,38.9512 60,40.5C 59.7003,38.9343 60.2003,37.601 61.5,36.5 Z"/></g>
<g><path style="opacity:1" fill="#bdb8ab" d="M 121.5,37.5 C 121.56,36.9569 121.893,36.6236 122.5,36.5C 123.333,37.5 124.167,38.5 125,39.5C 125.333,38.8333 125.667,38.1667 126,37.5C 126.681,39.5292 127.014,41.5292 127,43.5C 125.269,41.3834 123.102,39.8834 120.5,39C 121.167,38.6667 121.833,38.3333 122.5,38C 122.272,37.6012 121.938,37.4346 121.5,37.5 Z"/></g>
<g><path style="opacity:1" fill="#beb9ad" d="M 50.5,8.5 C 50.5,19.5 50.5,30.5 50.5,41.5C 50.5,43.1667 50.5,44.8333 50.5,46.5C 50.1924,48.924 50.5258,51.2573 51.5,53.5C 53.2433,51.9617 55.2433,50.9617 57.5,50.5C 55.5398,52.1563 53.5398,53.823 51.5,55.5C 51.44,54.9569 51.1067,54.6236 50.5,54.5C 49.8331,59.3167 49.1665,63.9834 48.5,68.5C 48.5632,48.8277 48.8966,29.161 49.5,9.5C 49.5,8.83333 49.8333,8.5 50.5,8.5 Z"/></g>
<g><path style="opacity:1" fill="#bfbaae" d="M 164.5,37.5 C 163.833,40.1667 162.167,41.8333 159.5,42.5C 160.833,40.5 162.5,38.8333 164.5,37.5 Z"/></g>
<g><path style="opacity:1" fill="#c2bcb1" d="M 23.5,40.5 C 25.0269,40.427 26.0269,41.0937 26.5,42.5C 24.9731,42.573 23.9731,41.9063 23.5,40.5 Z"/></g>
<g><path style="opacity:1" fill="#c6c1b6" d="M 34.5,38.5 C 37.0735,39.8793 38.5735,41.8793 39,44.5C 36.8733,42.8863 35.3733,40.8863 34.5,38.5 Z"/></g>
<g><path style="opacity:1" fill="#c3beb3" d="M 76.5,36.5 C 75.1667,39.8333 72.8333,42.1667 69.5,43.5C 71.5,40.8333 73.8333,38.5 76.5,36.5 Z"/></g>
<g><path style="opacity:1" fill="#b6b0a2" d="M 52.5,39.5 C 52.2785,42.0673 51.6118,44.4006 50.5,46.5C 50.5,44.8333 50.5,43.1667 50.5,41.5C 51.1667,40.8333 51.8333,40.1667 52.5,39.5 Z"/></g>
<g><path style="opacity:1" fill="#c0bbaf" d="M 112.5,40.5 C 118.83,43.3296 124.83,46.663 130.5,50.5C 123.847,48.1774 117.847,44.8441 112.5,40.5 Z"/></g>
<g><path style="opacity:1" fill="#c0bbaf" d="M 26.5,42.5 C 31.9843,44.4068 36.9843,47.0734 41.5,50.5C 36.0157,48.5932 31.0157,45.9266 26.5,42.5 Z"/></g>
<g><path style="opacity:1" fill="#c4beb4" d="M 139.5,8.5 C 139.172,19.6794 139.505,30.6794 140.5,41.5C 139.916,44.6699 139.25,47.8365 138.5,51C 138.833,51.8333 139.167,52.6667 139.5,53.5C 143.243,50.9617 147.243,48.9617 151.5,47.5C 147.646,50.021 143.812,52.6877 140,55.5C 139.826,60.3514 139.326,65.0181 138.5,69.5C 137.833,69.5 137.5,69.1667 137.5,68.5C 137.337,48.8213 137.67,29.1547 138.5,9.5C 138.5,8.83333 138.833,8.5 139.5,8.5 Z"/></g>
<g><path style="opacity:1" fill="#c2bdb2" d="M 159.5,42.5 C 158.198,44.8218 156.198,46.1551 153.5,46.5C 155.147,44.6736 157.147,43.3403 159.5,42.5 Z"/></g>
<g><path style="opacity:1" fill="#c1bcb0" d="M 69.5,43.5 C 66.1651,46.8389 62.1651,49.1722 57.5,50.5C 61.1638,47.6654 65.1638,45.332 69.5,43.5 Z"/></g>
<g><path style="opacity:1" fill="#aca696" d="M 134.5,39.5 C 134.833,39.5 135.167,39.5 135.5,39.5C 134.86,49.5578 135.527,59.2245 137.5,68.5C 137.5,69.1667 137.833,69.5 138.5,69.5C 137.432,70.4345 136.099,70.7678 134.5,70.5C 134.608,65.1301 134.275,59.7968 133.5,54.5C 134.767,51.9387 134.767,49.272 133.5,46.5C 134.468,44.3926 134.802,42.0593 134.5,39.5 Z"/></g>
<g><path style="opacity:1" fill="#c6c1b6" d="M 51.5,55.5 C 50.6745,59.9819 50.1745,64.6486 50,69.5C 48.9887,70.3366 47.8221,70.67 46.5,70.5C 47.1667,69.8333 47.8333,69.1667 48.5,68.5C 49.1665,63.9834 49.8331,59.3167 50.5,54.5C 51.1067,54.6236 51.44,54.9569 51.5,55.5 Z"/></g>
<g><path style="opacity:1" fill="#a7a08f" d="M 11.5,77.5 C 12.2623,79.2624 13.5956,80.2624 15.5,80.5C 15.9731,81.9063 16.9731,82.573 18.5,82.5C 18.9731,83.9063 19.9731,84.573 21.5,84.5C 21.9731,85.9063 22.9731,86.573 24.5,86.5C 24.9731,87.9063 25.9731,88.573 27.5,88.5C 29.8333,91.5 32.5,94.1667 35.5,96.5C 39.5455,103.97 42.2122,111.97 43.5,120.5C 43.4573,121.416 43.1239,122.083 42.5,122.5C 37.7981,119.818 33.1314,117.151 28.5,114.5C 27.3406,112.75 25.674,111.75 23.5,111.5C 21.5,108.833 19.1667,106.5 16.5,104.5C 16.573,102.973 15.9063,101.973 14.5,101.5C 13.6743,98.5152 12.341,95.8485 10.5,93.5C 8.52516,87.2771 7.3585,80.9437 7,74.5C 8.12901,76.1412 9.62901,77.1412 11.5,77.5 Z"/></g>
<g><path style="opacity:1" fill="#a7a18f" d="M 104.5,80.5 C 104.973,81.9063 105.973,82.573 107.5,82.5C 107.973,83.9063 108.973,84.573 110.5,84.5C 110.973,85.9063 111.973,86.573 113.5,86.5C 114.262,88.2624 115.596,89.2624 117.5,89.5C 125.425,97.6841 130.425,107.351 132.5,118.5C 132.768,120.099 132.434,121.432 131.5,122.5C 126.132,119.485 120.798,116.485 115.5,113.5C 115.027,112.094 114.027,111.427 112.5,111.5C 110.167,108.5 107.5,105.833 104.5,103.5C 104.25,101.326 103.25,99.6594 101.5,98.5C 99.7073,96.5739 98.7073,94.2406 98.5,91.5C 97.7867,87.313 96.7867,83.313 95.5,79.5C 95.3398,77.8008 95.5065,76.1341 96,74.5C 98.2787,77.3806 101.112,79.3806 104.5,80.5 Z"/></g>
<g><path style="opacity:1" fill="#c4beb3" d="M 104.5,80.5 C 101.112,79.3806 98.2787,77.3806 96,74.5C 95.5065,76.1341 95.3398,77.8008 95.5,79.5C 95.1667,79.5 94.8333,79.5 94.5,79.5C 94.5,77.5 94.5,75.5 94.5,73.5C 95.552,73.3505 96.552,73.5172 97.5,74C 99.9071,76.1831 102.24,78.3497 104.5,80.5 Z"/></g>
<g><path style="opacity:1" fill="#c4bfb4" d="M 11.5,77.5 C 13.4044,77.7376 14.7377,78.7376 15.5,80.5C 13.5956,80.2624 12.2623,79.2624 11.5,77.5 Z"/></g>
<g><path style="opacity:1" fill="#a7a08f" d="M 78.5,78.5 C 79.4619,86.0832 78.9619,93.7499 77,101.5C 75.1424,106.191 72.309,110.191 68.5,113.5C 64.827,115 61.4937,117 58.5,119.5C 58.1583,120.338 57.4916,120.672 56.5,120.5C 54.2433,120.962 52.2433,121.962 50.5,123.5C 50.1667,122.167 49.8333,120.833 49.5,119.5C 49.9639,116.113 50.6306,112.78 51.5,109.5C 53.0075,107.819 54.0075,105.819 54.5,103.5C 60.4523,93.2141 68.4523,84.8808 78.5,78.5 Z"/></g>
<g><path style="opacity:1" fill="#bbb5a9" d="M 136.5,78.5 C 136.5,78.8333 136.5,79.1667 136.5,79.5C 134.532,87.4329 133.865,95.7663 134.5,104.5C 134.167,104.5 133.833,104.5 133.5,104.5C 133.5,95.8333 133.5,87.1667 133.5,78.5C 134.5,78.5 135.5,78.5 136.5,78.5 Z"/></g>
<g><path style="opacity:1" fill="#a7a08f" d="M 168.5,77.5 C 168.626,87.8404 166.959,97.8404 163.5,107.5C 161.5,108.833 159.833,110.5 158.5,112.5C 156.147,113.34 154.147,114.674 152.5,116.5C 152.158,117.338 151.492,117.672 150.5,117.5C 147.669,118.079 145.336,119.412 143.5,121.5C 143.158,122.338 142.492,122.672 141.5,122.5C 139.983,122.511 138.816,123.177 138,124.5C 137.341,121.112 137.508,117.779 138.5,114.5C 139.738,112.786 140.405,110.786 140.5,108.5C 141.498,104.495 143.498,101.161 146.5,98.5C 148.587,97.4154 149.92,95.7488 150.5,93.5C 150.5,92.8333 150.833,92.5 151.5,92.5C 154.167,90.5 156.5,88.1667 158.5,85.5C 161.095,81.8743 164.428,79.2076 168.5,77.5 Z"/></g>
<g><path style="opacity:1" fill="#bcb7aa" d="M 11.5,77.5 C 9.62901,77.1412 8.12901,76.1412 7,74.5C 7.3585,80.9437 8.52516,87.2771 10.5,93.5C 7.77089,88.2706 6.10422,82.6039 5.5,76.5C 5.47697,74.9334 5.97697,73.6001 7,72.5C 8.70733,74.0375 10.2073,75.7041 11.5,77.5 Z"/></g>
<g><path style="opacity:1" fill="#c3beb3" d="M 15.5,80.5 C 17.0269,80.427 18.0269,81.0937 18.5,82.5C 16.9731,82.573 15.9731,81.9063 15.5,80.5 Z"/></g>
<g><path style="opacity:1" fill="#b5afa1" d="M 94.5,79.5 C 94.8333,79.5 95.1667,79.5 95.5,79.5C 96.7867,83.313 97.7867,87.313 98.5,91.5C 96.2991,87.8862 94.9658,83.8862 94.5,79.5 Z"/></g>
<g><path style="opacity:1" fill="#cecbc1" d="M 45.5,78.5 C 46.8333,78.5 48.1667,78.5 49.5,78.5C 49.5,85.8333 49.5,93.1667 49.5,100.5C 48.5318,98.3926 48.1984,96.0593 48.5,93.5C 49.1031,88.3814 48.4364,83.7147 46.5,79.5C 45.8333,79.5 45.5,79.1667 45.5,78.5 Z"/></g>
<g><path style="opacity:1" fill="#c4bfb4" d="M 104.5,80.5 C 106.027,80.427 107.027,81.0937 107.5,82.5C 105.973,82.573 104.973,81.9063 104.5,80.5 Z"/></g>
<g><path style="opacity:1" fill="#c4bfb4" d="M 18.5,82.5 C 20.0269,82.427 21.0269,83.0937 21.5,84.5C 19.9731,84.573 18.9731,83.9063 18.5,82.5 Z"/></g>
<g><path style="opacity:1" fill="#c3bdb3" d="M 107.5,82.5 C 109.027,82.427 110.027,83.0937 110.5,84.5C 108.973,84.573 107.973,83.9063 107.5,82.5 Z"/></g>
<g><path style="opacity:1" fill="#c5c0b6" d="M 21.5,84.5 C 23.0269,84.427 24.0269,85.0937 24.5,86.5C 22.9731,86.573 21.9731,85.9063 21.5,84.5 Z"/></g>
<g><path style="opacity:1" fill="#c4c0b5" d="M 110.5,84.5 C 112.027,84.427 113.027,85.0937 113.5,86.5C 111.973,86.573 110.973,85.9063 110.5,84.5 Z"/></g>
<g><path style="opacity:1" fill="#c5c0b6" d="M 24.5,86.5 C 26.0269,86.427 27.0269,87.0937 27.5,88.5C 25.9731,88.573 24.9731,87.9063 24.5,86.5 Z"/></g>
<g><path style="opacity:1" fill="#c5c0b6" d="M 113.5,86.5 C 115.404,86.7376 116.738,87.7376 117.5,89.5C 115.596,89.2624 114.262,88.2624 113.5,86.5 Z"/></g>
<g><path style="opacity:1" fill="#b8b2a5" d="M 158.5,85.5 C 156.5,88.1667 154.167,90.5 151.5,92.5C 152.833,89.1667 155.167,86.8333 158.5,85.5 Z"/></g>
<g><path style="opacity:1" fill="#c4bfb4" d="M 117.5,89.5 C 121.099,91.2629 123.932,93.9295 126,97.5C 128.936,102.475 130.769,107.808 131.5,113.5C 132.301,115.042 132.634,116.708 132.5,118.5C 130.425,107.351 125.425,97.6841 117.5,89.5 Z"/></g>
<g><path style="opacity:1" fill="#bab5a8" d="M 15.5,89.5 C 17.4459,90.2544 18.2793,91.5878 18,93.5C 16.5806,92.5399 15.0806,91.7065 13.5,91C 14.4158,90.7216 15.0825,90.2216 15.5,89.5 Z"/></g>
<g><path style="opacity:1" fill="#b8b2a5" d="M 103.5,88.5 C 105.022,89.4312 106.355,90.5979 107.5,92C 107.167,92.5 106.833,93 106.5,93.5C 105.3,92.4688 103.966,91.6355 102.5,91C 103.252,90.3292 103.586,89.4959 103.5,88.5 Z"/></g>
<g><path style="opacity:1" fill="#c6c1b7" d="M 27.5,88.5 C 31.1667,90.1667 33.8333,92.8333 35.5,96.5C 32.5,94.1667 29.8333,91.5 27.5,88.5 Z"/></g>
<g><path style="opacity:1" fill="#cac6bc" d="M 136.5,79.5 C 136.5,79.1667 136.5,78.8333 136.5,78.5C 138.45,83.7351 139.117,89.4018 138.5,95.5C 137.833,95.5 137.5,95.1667 137.5,94.5C 137.821,89.3054 137.487,84.3054 136.5,79.5 Z"/></g>
<g><path style="opacity:1" fill="#b6b1a3" d="M 150.5,93.5 C 149.92,95.7488 148.587,97.4154 146.5,98.5C 147.08,96.2512 148.413,94.5846 150.5,93.5 Z"/></g>
<g><path style="opacity:1" fill="#c0bbaf" d="M 157.5,94.5 C 158.239,94.369 158.906,94.5357 159.5,95C 156.843,101.167 156.176,101.001 157.5,94.5 Z"/></g>
<g><path style="opacity:1" fill="#bcb7aa" d="M 10.5,93.5 C 12.341,95.8485 13.6743,98.5152 14.5,101.5C 12.127,99.4208 10.7936,96.7541 10.5,93.5 Z"/></g>
<g><path style="opacity:1" fill="#c1bcb1" d="M 68.5,94.5 C 69.3764,94.3691 70.0431,94.7025 70.5,95.5C 69.3595,96.4255 69.3595,97.2588 70.5,98C 69.9747,98.6924 69.3081,99.1924 68.5,99.5C 67.9478,97.9974 67.9478,96.3307 68.5,94.5 Z"/></g>
<g><path style="opacity:1" fill="#c4bfb4" d="M 68.5,113.5 C 72.309,110.191 75.1424,106.191 77,101.5C 78.9619,93.7499 79.4619,86.0832 78.5,78.5C 78.811,77.5222 79.4777,76.8555 80.5,76.5C 81.2205,84.5321 80.7205,92.5321 79,100.5C 77.3775,106.444 73.8775,110.777 68.5,113.5 Z"/></g>
<g><path style="opacity:1" fill="#bbb5a8" d="M 22.5,98.5 C 22.56,97.9569 22.8933,97.6236 23.5,97.5C 24.5,99.1667 25.8333,100.5 27.5,101.5C 24.5351,101.47 21.5351,100.637 18.5,99C 20.6793,99.3792 22.0126,99.2126 22.5,98.5 Z"/></g>
<g><path style="opacity:1" fill="#beb8ac" d="M 101.5,98.5 C 103.25,99.6594 104.25,101.326 104.5,103.5C 102.75,102.341 101.75,100.674 101.5,98.5 Z"/></g>
<g><path style="opacity:1" fill="#b9b4a7" d="M 104.5,98.5 C 106.646,97.5694 108.812,97.9027 111,99.5C 111.333,98.8333 111.667,98.1667 112,97.5C 113.833,98.6667 115.333,100.167 116.5,102C 112.562,100.969 108.562,99.8024 104.5,98.5 Z"/></g>
<g><path style="opacity:1" fill="#c5c1b6" d="M 163.5,107.5 C 166.959,97.8404 168.626,87.8404 168.5,77.5C 168.81,76.2617 169.31,76.2617 170,77.5C 169.851,84.5111 169.185,91.5111 168,98.5C 167.528,102.11 166.028,105.11 163.5,107.5 Z"/></g>
<g><path style="opacity:1" fill="#bfb9ae" d="M 14.5,101.5 C 15.9063,101.973 16.573,102.973 16.5,104.5C 15.0937,104.027 14.427,103.027 14.5,101.5 Z"/></g>
<g><path style="opacity:1" fill="#bfbaae" d="M 104.5,103.5 C 107.5,105.833 110.167,108.5 112.5,111.5C 108.833,109.833 106.167,107.167 104.5,103.5 Z"/></g>
<g><path style="opacity:1" fill="#c6c1b6" d="M 148.5,106.5 C 150.337,106.639 150.67,107.306 149.5,108.5C 148.702,108.043 148.369,107.376 148.5,106.5 Z"/></g>
<g><path style="opacity:1" fill="#c0baaf" d="M 16.5,104.5 C 19.1667,106.5 21.5,108.833 23.5,111.5C 20.1667,110.167 17.8333,107.833 16.5,104.5 Z"/></g>
<g><path style="opacity:1" fill="#bcb6a9" d="M 31.5,106.5 C 32.7942,107.29 33.9609,108.29 35,109.5C 35.3333,108.833 35.6667,108.167 36,107.5C 36.6811,109.529 37.0144,111.529 37,113.5C 34.9205,111.877 32.7538,110.377 30.5,109C 31.2524,108.329 31.5858,107.496 31.5,106.5 Z"/></g>
<g><path style="opacity:1" fill="#b6b1a2" d="M 54.5,103.5 C 54.0075,105.819 53.0075,107.819 51.5,109.5C 51.461,106.911 52.461,104.911 54.5,103.5 Z"/></g>
<g><path style="opacity:1" fill="#b9b3a6" d="M 137.5,94.5 C 137.5,95.1667 137.833,95.5 138.5,95.5C 138.334,100.511 138.501,105.511 139,110.5C 139.278,109.584 139.778,108.918 140.5,108.5C 140.405,110.786 139.738,112.786 138.5,114.5C 137.833,109.5 137.167,104.5 136.5,99.5C 136.216,97.5853 136.549,95.9187 137.5,94.5 Z"/></g>
<g><path style="opacity:1" fill="#bfbaad" d="M 163.5,107.5 C 162.833,110.167 161.167,111.833 158.5,112.5C 159.833,110.5 161.5,108.833 163.5,107.5 Z"/></g>
<g><path style="opacity:1" fill="#cac6bc" d="M 121.5,110.5 C 122.892,109.478 124.225,109.811 125.5,111.5C 125.333,111.833 125.167,112.167 125,112.5C 123.887,111.695 122.721,111.028 121.5,110.5 Z"/></g>
<g><path style="opacity:1" fill="#afa999" d="M 133.5,104.5 C 133.833,104.5 134.167,104.5 134.5,104.5C 134.46,109.193 134.127,113.859 133.5,118.5C 133.167,118.5 132.833,118.5 132.5,118.5C 132.634,116.708 132.301,115.042 131.5,113.5C 132.913,110.781 133.58,107.781 133.5,104.5 Z"/></g>
<g><path style="opacity:1" fill="#c2bdb2" d="M 23.5,111.5 C 25.674,111.75 27.3406,112.75 28.5,114.5C 26.326,114.25 24.6594,113.25 23.5,111.5 Z"/></g>
<g><path style="opacity:1" fill="#c3bdb2" d="M 112.5,111.5 C 114.027,111.427 115.027,112.094 115.5,113.5C 113.973,113.573 112.973,112.906 112.5,111.5 Z"/></g>
<g><path style="opacity:1" fill="#b8b3a5" d="M 54.5,112.5 C 58.8803,113.099 59.2136,114.099 55.5,115.5C 54.6143,114.675 54.281,113.675 54.5,112.5 Z"/></g>
<g><path style="opacity:1" fill="#c1bcb1" d="M 68.5,113.5 C 65.8388,116.502 62.5055,118.502 58.5,119.5C 61.4937,117 64.827,115 68.5,113.5 Z"/></g>
<g><path style="opacity:1" fill="#c2beb2" d="M 158.5,112.5 C 157.198,114.822 155.198,116.155 152.5,116.5C 154.147,114.674 156.147,113.34 158.5,112.5 Z"/></g>
<g><path style="opacity:1" fill="#bcb6a9" d="M 45.5,78.5 C 45.5,79.1667 45.8333,79.5 46.5,79.5C 45.7172,93.8017 45.2172,108.135 45,122.5C 44.2949,124.986 43.4616,124.986 42.5,122.5C 43.1239,122.083 43.4573,121.416 43.5,120.5C 42.2122,111.97 39.5455,103.97 35.5,96.5C 40.1476,102.241 42.981,108.908 44,116.5C 44.1691,103.66 44.6691,90.9934 45.5,78.5 Z"/></g>
<g><path style="opacity:1" fill="#cdcac0" d="M 132.5,118.5 C 132.833,118.5 133.167,118.5 133.5,118.5C 133.662,120.527 133.495,122.527 133,124.5C 132.283,123.956 131.783,123.289 131.5,122.5C 132.434,121.432 132.768,120.099 132.5,118.5 Z"/></g>
<g><path style="opacity:1" fill="#c3beb2" d="M 150.5,117.5 C 148.664,119.588 146.331,120.921 143.5,121.5C 145.336,119.412 147.669,118.079 150.5,117.5 Z"/></g>
<g><path style="opacity:1" fill="#cac5bc" d="M 136.5,99.5 C 137.167,104.5 137.833,109.5 138.5,114.5C 137.508,117.779 137.341,121.112 138,124.5C 138.816,123.177 139.983,122.511 141.5,122.5C 140.542,123.962 139.376,125.295 138,126.5C 137.501,131.155 137.334,135.821 137.5,140.5C 133.162,140.378 132.828,140.045 136.5,139.5C 136.5,126.167 136.5,112.833 136.5,99.5 Z"/></g>
<g><path style="opacity:1" fill="#beb9ad" d="M 48.5,93.5 C 48.1984,96.0593 48.5318,98.3926 49.5,100.5C 49.3347,104.182 49.5014,107.848 50,111.5C 50.2784,110.584 50.7784,109.918 51.5,109.5C 50.6306,112.78 49.9639,116.113 49.5,119.5C 49.8333,120.833 50.1667,122.167 50.5,123.5C 52.2433,121.962 54.2433,120.962 56.5,120.5C 54.5707,122.148 52.5707,123.815 50.5,125.5C 49.6717,130.132 49.1717,134.798 49,139.5C 47.9505,140.517 46.7839,140.684 45.5,140C 47.1498,124.566 48.1498,109.066 48.5,93.5 Z"/></g>
<g><path style="opacity:1" fill="#c0bbaf" d="M 11.5,149.5 C 9.26396,148.611 7.26396,147.278 5.5,145.5C 5.2896,148.386 5.12293,151.386 5,154.5C 4.06422,150.886 3.56422,147.22 3.5,143.5C 6.98949,144.313 9.65615,146.313 11.5,149.5 Z"/></g>
<g><path style="opacity:1" fill="#c4bfb5" d="M 11.5,149.5 C 13.0269,149.427 14.0269,150.094 14.5,151.5C 12.9731,151.573 11.9731,150.906 11.5,149.5 Z"/></g>
<g><path style="opacity:1" fill="#a7a08f" d="M 76.5,148.5 C 77.5393,154.691 77.3726,161.025 76,167.5C 75.3166,171.856 73.8166,175.856 71.5,179.5C 71.5,181.5 70.5,182.5 68.5,182.5C 66.1475,183.34 64.1475,184.674 62.5,186.5C 59.0078,187.41 56.0078,189.076 53.5,191.5C 53.1583,192.338 52.4916,192.672 51.5,192.5C 49.9557,192.703 48.6223,193.37 47.5,194.5C 47.1667,194.167 46.8333,193.833 46.5,193.5C 47.3155,188.789 48.3155,184.122 49.5,179.5C 50.4097,176.008 52.0764,173.008 54.5,170.5C 56.5869,169.415 57.9202,167.749 58.5,165.5C 62.8333,161.833 66.8333,157.833 70.5,153.5C 71.8908,151.11 73.8908,149.443 76.5,148.5 Z"/></g>
<g><path style="opacity:1" fill="#a7a18f" d="M 165.5,148.5 C 166.137,156.048 165.637,163.715 164,171.5C 160.693,178.303 155.86,183.636 149.5,187.5C 148.486,188.674 147.153,189.34 145.5,189.5C 142.151,190.169 139.484,191.836 137.5,194.5C 136.252,193.666 135.585,192.333 135.5,190.5C 135.672,188.452 136.005,186.452 136.5,184.5C 137.404,183.791 137.737,182.791 137.5,181.5C 138.635,175.891 141.301,171.224 145.5,167.5C 147.587,166.415 148.92,164.749 149.5,162.5C 153.94,156.722 159.273,152.055 165.5,148.5 Z"/></g>
<g><path style="opacity:1" fill="#c6c0b5" d="M 100.5,149.5 C 102.027,149.427 103.027,150.094 103.5,151.5C 101.973,151.573 100.973,150.906 100.5,149.5 Z"/></g>
<g><path style="opacity:1" fill="#c3beb3" d="M 14.5,151.5 C 16.0269,151.427 17.0269,152.094 17.5,153.5C 15.9731,153.573 14.9731,152.906 14.5,151.5 Z"/></g>
<g><path style="opacity:1" fill="#ccc8bf" d="M 43.5,149.5 C 44.5676,148.566 45.901,148.232 47.5,148.5C 47.5,158.833 47.5,169.167 47.5,179.5C 46.5318,177.393 46.1984,175.059 46.5,172.5C 47.1318,164.427 46.4651,156.76 44.5,149.5C 44.1667,149.5 43.8333,149.5 43.5,149.5 Z"/></g>
<g><path style="opacity:1" fill="#bdb7ab" d="M 100.5,149.5 C 98.264,148.611 96.264,147.278 94.5,145.5C 94.1667,146.333 93.8333,147.167 93.5,148C 94.5326,153.593 95.8659,159.093 97.5,164.5C 93.6089,158.043 92.2756,151.043 93.5,143.5C 96.4674,144.804 98.8008,146.804 100.5,149.5 Z"/></g>
<g><path style="opacity:1" fill="#c4bfb4" d="M 103.5,151.5 C 105.027,151.427 106.027,152.094 106.5,153.5C 104.973,153.573 103.973,152.906 103.5,151.5 Z"/></g>
<g><path style="opacity:1" fill="#c4bfb4" d="M 17.5,153.5 C 19.0269,153.427 20.0269,154.094 20.5,155.5C 18.9731,155.573 17.9731,154.906 17.5,153.5 Z"/></g>
<g><path style="opacity:1" fill="#c5c0b5" d="M 106.5,153.5 C 108.027,153.427 109.027,154.094 109.5,155.5C 107.973,155.573 106.973,154.906 106.5,153.5 Z"/></g>
<g><path style="opacity:1" fill="#c5c1b6" d="M 20.5,155.5 C 22.0269,155.427 23.0269,156.094 23.5,157.5C 21.9731,157.573 20.9731,156.906 20.5,155.5 Z"/></g>
<g><path style="opacity:1" fill="#c4c0b5" d="M 109.5,155.5 C 111.027,155.427 112.027,156.094 112.5,157.5C 110.973,157.573 109.973,156.906 109.5,155.5 Z"/></g>
<g><path style="opacity:1" fill="#b6b0a2" d="M 70.5,153.5 C 66.8333,157.833 62.8333,161.833 58.5,165.5C 61.5,160.5 65.5,156.5 70.5,153.5 Z"/></g>
<g><path style="opacity:1" fill="#c6c1b6" d="M 23.5,157.5 C 25.4044,157.738 26.7377,158.738 27.5,160.5C 25.5956,160.262 24.2623,159.262 23.5,157.5 Z"/></g>
<g><path style="opacity:1" fill="#c5c0b5" d="M 112.5,157.5 C 114.749,158.08 116.415,159.413 117.5,161.5C 115.251,160.92 113.585,159.587 112.5,157.5 Z"/></g>
<g><path style="opacity:1" fill="#c4bfb4" d="M 27.5,160.5 C 30.1667,161.167 31.8333,162.833 32.5,165.5C 30.5,164.167 28.8333,162.5 27.5,160.5 Z"/></g>
<g><path style="opacity:1" fill="#c2beb2" d="M 117.5,161.5 C 118.496,161.414 119.329,161.748 120,162.5C 122.157,164.817 123.657,167.484 124.5,170.5C 121.815,167.81 119.482,164.81 117.5,161.5 Z"/></g>
<g><path style="opacity:1" fill="#c5c0b6" d="M 14.5,161.5 C 15.9221,161.75 16.9221,162.583 17.5,164C 15.5106,164.519 14.5106,163.686 14.5,161.5 Z"/></g>
<g><path style="opacity:1" fill="#bbb5a8" d="M 10.5,168.5 C 8.5381,166.575 7.70477,164.242 8,161.5C 9.41141,163.65 10.2447,165.984 10.5,168.5 Z"/></g>
<g><path style="opacity:1" fill="#b8b2a5" d="M 149.5,162.5 C 148.92,164.749 147.587,166.415 145.5,167.5C 146.08,165.251 147.413,163.585 149.5,162.5 Z"/></g>
<g><path style="opacity:1" fill="#c6c2b7" d="M 76.5,148.5 C 77.209,147.596 78.209,147.263 79.5,147.5C 79.3217,156.316 78.155,164.983 76,173.5C 75.2082,176.106 73.7082,178.106 71.5,179.5C 73.8166,175.856 75.3166,171.856 76,167.5C 77.3726,161.025 77.5393,154.691 76.5,148.5 Z"/></g>
<g><path style="opacity:1" fill="#c2beb2" d="M 32.5,165.5 C 38.2133,171.621 41.2133,178.954 41.5,187.5C 41.1667,187.5 40.8333,187.5 40.5,187.5C 39.208,179.62 36.5413,172.287 32.5,165.5 Z"/></g>
<g><path style="opacity:1" fill="#bdb8ac" d="M 97.5,164.5 C 98.8478,165.527 99.3478,166.86 99,168.5C 97.8118,167.437 97.3118,166.103 97.5,164.5 Z"/></g>
<g><path style="opacity:1" fill="#b7b1a3" d="M 58.5,165.5 C 57.9202,167.749 56.5869,169.415 54.5,170.5C 55.0798,168.251 56.4131,166.585 58.5,165.5 Z"/></g>
<g><path style="opacity:1" fill="#bdb8ab" d="M 66.5,165.5 C 67.2389,165.369 67.9056,165.536 68.5,166C 68.4928,168.119 67.3261,169.953 65,171.5C 65.1503,169.494 65.6503,167.494 66.5,165.5 Z"/></g>
<g><path style="opacity:1" fill="#bab4a7" d="M 102.5,162.5 C 102.735,161.903 103.235,161.57 104,161.5C 110.948,168.132 117.948,175.466 125,183.5C 125.667,184.167 125.667,184.833 125,185.5C 122.736,182.567 119.902,180.4 116.5,179C 117.167,178.667 117.833,178.333 118.5,178C 116.5,176 114.5,174 112.5,172C 109.756,171.197 107.089,170.197 104.5,169C 106.207,168.805 107.874,168.805 109.5,169C 107.297,166.628 104.963,164.461 102.5,162.5 Z"/></g>
<g><path style="opacity:1" fill="#c1bcb1" d="M 137.5,181.5 C 137.737,182.791 137.404,183.791 136.5,184.5C 135.833,180.5 135.167,176.5 134.5,172.5C 134.986,164.842 135.32,157.175 135.5,149.5C 131.828,148.955 132.162,148.622 136.5,148.5C 136.172,159.679 136.505,170.679 137.5,181.5 Z"/></g>
<g><path style="opacity:1" fill="#beb9ac" d="M 155.5,165.5 C 158.04,168.167 157.374,169.667 153.5,170C 154.582,168.67 155.249,167.17 155.5,165.5 Z"/></g>
<g><path style="opacity:1" fill="#b4afa0" d="M 24.5,170.5 C 23.5084,170.328 22.8417,170.662 22.5,171.5C 20.0763,170.97 17.743,170.136 15.5,169C 17.2072,168.805 18.8739,168.805 20.5,169C 19.5494,168.282 19.3828,167.449 20,166.5C 21,167.5 22,168.5 23,169.5C 24.0875,167.068 24.5875,167.402 24.5,170.5 Z"/></g>
<g><path style="opacity:1" fill="#bdb8ac" d="M 10.5,168.5 C 12.2503,169.659 13.2503,171.326 13.5,173.5C 11.7497,172.341 10.7497,170.674 10.5,168.5 Z"/></g>
<g><path style="opacity:1" fill="#cbc6bc" d="M 22.5,171.5 C 22.8417,170.662 23.5084,170.328 24.5,170.5C 26.8648,173.995 26.1981,174.328 22.5,171.5 Z"/></g>
<g><path style="opacity:1" fill="#beb9ad" d="M 102.5,173.5 C 100.915,172.998 100.415,171.998 101,170.5C 102.039,171.244 102.539,172.244 102.5,173.5 Z"/></g>
<g><path style="opacity:1" fill="#cac5bb" d="M 124.5,170.5 C 126.104,171.287 126.771,172.62 126.5,174.5C 125.326,173.486 124.66,172.153 124.5,170.5 Z"/></g>
<g><path style="opacity:1" fill="#c0baaf" d="M 102.5,173.5 C 104.085,174.002 104.585,175.002 104,176.5C 102.961,175.756 102.461,174.756 102.5,173.5 Z"/></g>
<g><path style="opacity:1" fill="#bfb9ad" d="M 13.5,173.5 C 15.5869,174.585 16.9202,176.251 17.5,178.5C 15.4131,177.415 14.0798,175.749 13.5,173.5 Z"/></g>
<g><path style="opacity:1" fill="#bab4a7" d="M 43.5,149.5 C 43.8333,149.5 44.1667,149.5 44.5,149.5C 43.9994,164.523 43.1661,179.523 42,194.5C 41.2828,193.956 40.7828,193.289 40.5,192.5C 41.7199,190.95 41.7199,189.284 40.5,187.5C 40.8333,187.5 41.1667,187.5 41.5,187.5C 42.1667,174.833 42.8333,162.167 43.5,149.5 Z"/></g>
<g><path style="opacity:1" fill="#b9b4a6" d="M 58.5,176.5 C 59.8734,176.343 61.2068,176.51 62.5,177C 60.9194,177.707 59.4194,178.54 58,179.5C 57.5304,178.423 57.6971,177.423 58.5,176.5 Z"/></g>
<g><path style="opacity:1" fill="#c2bdb2" d="M 126.5,174.5 C 129.034,179.78 130.701,185.447 131.5,191.5C 131.333,192.5 131.167,193.5 131,194.5C 129.008,193.672 127.508,192.339 126.5,190.5C 128.017,190.511 129.184,191.177 130,192.5C 129.169,186.495 128.002,180.495 126.5,174.5 Z"/></g>
<g><path style="opacity:1" fill="#bab5a8" d="M 148.5,175.5 C 149.473,175.987 150.473,176.487 151.5,177C 149.413,177.792 147.579,178.959 146,180.5C 145.751,178.332 146.584,176.665 148.5,175.5 Z"/></g>
<g><path style="opacity:1" fill="#cbc7bd" d="M 134.5,172.5 C 135.167,176.5 135.833,180.5 136.5,184.5C 136.005,186.452 135.672,188.452 135.5,190.5C 135.585,192.333 136.252,193.666 137.5,194.5C 137.217,195.289 136.717,195.956 136,196.5C 135.501,201.155 135.334,205.821 135.5,210.5C 131.162,210.378 130.828,210.045 134.5,209.5C 134.5,197.167 134.5,184.833 134.5,172.5 Z"/></g>
<g><path style="opacity:1" fill="#c1bcb0" d="M 17.5,178.5 C 19.7488,179.08 21.4154,180.413 22.5,182.5C 20.2512,181.92 18.5846,180.587 17.5,178.5 Z"/></g>
<g><path style="opacity:1" fill="#bdb7ab" d="M 28.5,175.5 C 30.5041,176.673 32.0041,178.34 33,180.5C 33.3333,179.5 33.6667,178.5 34,177.5C 34.7432,180.265 35.4099,182.931 36,185.5C 33.7602,182.598 30.9269,180.431 27.5,179C 28.1667,178.667 28.8333,178.333 29.5,178C 28.7476,177.329 28.4142,176.496 28.5,175.5 Z"/></g>
<g><path style="opacity:1" fill="#bfbaae" d="M 111.5,182.5 C 109.059,181.916 107.559,180.583 107,178.5C 108.992,179.328 110.492,180.661 111.5,182.5 Z"/></g>
<g><path style="opacity:1" fill="#c3beb3" d="M 165.5,148.5 C 166.209,147.596 167.209,147.263 168.5,147.5C 167.99,155.932 166.824,164.265 165,172.5C 161.926,179.742 156.759,184.742 149.5,187.5C 155.86,183.636 160.693,178.303 164,171.5C 165.637,163.715 166.137,156.048 165.5,148.5 Z"/></g>
<g><path style="opacity:1" fill="#c1bbb0" d="M 46.5,172.5 C 46.1984,175.059 46.5318,177.393 47.5,179.5C 47.369,180.239 47.5357,180.906 48,181.5C 48.2784,180.584 48.7784,179.918 49.5,179.5C 48.3155,184.122 47.3155,188.789 46.5,193.5C 46.8333,193.833 47.1667,194.167 47.5,194.5C 48.6223,193.37 49.9557,192.703 51.5,192.5C 50.5423,193.962 49.3756,195.295 48,196.5C 47.6667,200.833 47.3333,205.167 47,209.5C 45.6124,210.554 44.1124,210.72 42.5,210C 43.448,209.517 44.448,209.351 45.5,209.5C 45.1714,196.989 45.5048,184.655 46.5,172.5 Z"/></g>
<g><path style="opacity:1" fill="#c1bbb0" d="M 111.5,182.5 C 116.984,184.407 121.984,187.073 126.5,190.5C 121.016,188.593 116.016,185.927 111.5,182.5 Z"/></g>
<g><path style="opacity:1" fill="#c2bdb2" d="M 68.5,182.5 C 67.1979,184.822 65.1979,186.155 62.5,186.5C 64.1475,184.674 66.1475,183.34 68.5,182.5 Z"/></g>
<g><path style="opacity:1" fill="#c0bbb0" d="M 22.5,182.5 C 27.9843,184.407 32.9843,187.073 37.5,190.5C 32.0157,188.593 27.0157,185.927 22.5,182.5 Z"/></g>
<g><path style="opacity:1" fill="#c2bdb1" d="M 62.5,186.5 C 59.9922,188.924 56.9922,190.59 53.5,191.5C 56.0078,189.076 59.0078,187.41 62.5,186.5 Z"/></g>
<g><path style="opacity:1" fill="#bbb6aa" d="M 37.5,190.5 C 39.0269,190.427 40.0269,191.094 40.5,192.5C 38.9731,192.573 37.9731,191.906 37.5,190.5 Z"/></g>
<g><path style="opacity:1" fill="#c3beb3" d="M 145.5,189.5 C 143.178,191.664 140.511,193.331 137.5,194.5C 139.484,191.836 142.151,190.169 145.5,189.5 Z"/></g>
</svg>
