<?xml version="1.0" encoding="UTF-8"?>
<!DOCTYPE svg PUBLIC "-//W3C//DTD SVG 1.1//EN" "http://www.w3.org/Graphics/SVG/1.1/DTD/svg11.dtd">
<svg xmlns="http://www.w3.org/2000/svg" version="1.1" width="196px" height="315px" style="shape-rendering:geometricPrecision; text-rendering:geometricPrecision; image-rendering:optimizeQuality; fill-rule:evenodd; clip-rule:evenodd" xmlns:xlink="http://www.w3.org/1999/xlink">
<g><path style="opacity:1" fill="#bfb9ad" d="M -0.5,-0.5 C 64.8333,-0.5 130.167,-0.5 195.5,-0.5C 195.5,5.5 195.5,11.5 195.5,17.5C 193.529,16.1769 191.529,14.8435 189.5,13.5C 188.353,15.7649 188.186,18.0982 189,20.5C 189.333,18.8333 189.667,17.1667 190,15.5C 191.992,16.6647 193.825,17.998 195.5,19.5C 195.5,25.1667 195.5,30.8333 195.5,36.5C 194.442,35.3998 193.608,34.0664 193,32.5C 192.705,35.2417 193.538,37.575 195.5,39.5C 195.5,56.1667 195.5,72.8333 195.5,89.5C 194.395,88.3995 193.062,87.7329 191.5,87.5C 192.5,89.1667 193.833,90.5 195.5,91.5C 195.5,97.8333 195.5,104.167 195.5,110.5C 192.813,109.939 192.813,110.606 195.5,112.5C 195.5,128.5 195.5,144.5 195.5,160.5C 194.609,159.89 193.609,159.557 192.5,159.5C 192.973,160.906 193.973,161.573 195.5,161.5C 195.5,168.5 195.5,175.5 195.5,182.5C 192.813,181.939 192.813,182.606 195.5,184.5C 195.5,203.833 195.5,223.167 195.5,242.5C 192.813,241.939 192.813,242.606 195.5,244.5C 195.5,248.167 195.5,251.833 195.5,255.5C 194.5,254.833 193.5,254.167 192.5,253.5C 192.738,255.404 193.738,256.738 195.5,257.5C 195.5,276.5 195.5,295.5 195.5,314.5C 130.167,314.5 64.8333,314.5 -0.5,314.5C -0.5,284.833 -0.5,255.167 -0.5,225.5C -0.166667,225.5 0.166667,225.5 0.5,225.5C 0.251076,229.458 0.917743,233.124 2.5,236.5C 3.43157,241.689 5.43157,246.356 8.5,250.5C 8.42702,252.027 9.09368,253.027 10.5,253.5C 12.5622,257.895 15.8955,260.895 20.5,262.5C 25.0157,265.927 30.0157,268.593 35.5,270.5C 35.5,271.167 35.8333,271.5 36.5,271.5C 36.7828,272.289 37.2828,272.956 38,273.5C 38.1733,279.016 38.6733,284.349 39.5,289.5C 40.8333,289.5 42.1667,289.5 43.5,289.5C 43.3342,284.821 43.5008,280.155 44,275.5C 45.045,274.627 45.8783,273.627 46.5,272.5C 48.674,272.25 50.3406,271.25 51.5,269.5C 53.153,269.34 54.4863,268.674 55.5,267.5C 57.674,267.25 59.3406,266.25 60.5,264.5C 62.0269,264.573 63.0269,263.906 63.5,262.5C 68.31,259.919 71.4767,255.919 73,250.5C 74.2276,244.227 75.0609,237.894 75.5,231.5C 75.4439,229.36 74.7773,227.694 73.5,226.5C 68.4681,230.375 63.6347,234.375 59,238.5C 56.0378,242.136 53.0378,245.802 50,249.5C 49.2086,250.745 48.7086,252.078 48.5,253.5C 46.461,254.911 45.461,256.911 45.5,259.5C 44.8333,260.167 44.1667,260.833 43.5,261.5C 43.5,255.833 43.5,250.167 43.5,244.5C 44.4889,239.025 44.8222,233.358 44.5,227.5C 42.8333,227.5 41.1667,227.5 39.5,227.5C 38.905,240.159 38.405,252.825 38,265.5C 37.3649,260.757 35.8649,256.424 33.5,252.5C 33.7709,250.62 33.1042,249.287 31.5,248.5C 31.573,246.973 30.9063,245.973 29.5,245.5C 28.1667,242.167 25.8333,239.833 22.5,238.5C 20.0495,235.723 17.0495,233.723 13.5,232.5C 13.0269,231.094 12.0269,230.427 10.5,230.5C 9.73769,228.738 8.40435,227.738 6.5,227.5C 5.08917,225.086 3.08917,223.419 0.5,222.5C 0.166667,222.5 -0.166667,222.5 -0.5,222.5C -0.5,148.167 -0.5,73.8333 -0.5,-0.5 Z"/></g>
<g><path style="opacity:1" fill="#dedbd5" d="M 11.5,16.5 C 9.22275,15.5514 7.22275,14.2181 5.5,12.5C 5.89657,11.475 6.56323,11.3083 7.5,12C 9.04138,13.3712 10.3747,14.8712 11.5,16.5 Z"/></g>
<g><path style="opacity:1" fill="#c0bbb0" d="M 5.5,12.5 C 7.22275,14.2181 9.22275,15.5514 11.5,16.5C 12.2623,18.2624 13.5956,19.2624 15.5,19.5C 15.9731,20.9063 16.9731,21.573 18.5,21.5C 20.1475,23.3264 22.1475,24.6597 24.5,25.5C 24.9731,26.9063 25.9731,27.573 27.5,27.5C 29.5,30.1667 31.8333,32.5 34.5,34.5C 37.7713,40.9922 40.438,47.6588 42.5,54.5C 42.5,54.8333 42.5,55.1667 42.5,55.5C 43.2907,57.6907 43.2907,59.6907 42.5,61.5C 41.1283,60.4884 39.795,59.4884 38.5,58.5C 33.9843,55.0734 28.9843,52.4068 23.5,50.5C 21.1667,47.5 18.5,44.8333 15.5,42.5C 15.573,40.9731 14.9063,39.9731 13.5,39.5C 11.9925,37.8185 10.9925,35.8185 10.5,33.5C 8.65134,27.0998 6.98467,20.7664 5.5,14.5C 4.16667,13.8333 4.16667,13.1667 5.5,12.5 Z"/></g>
<g><path style="opacity:1" fill="#bfbaaf" d="M 100.5,16.5 C 101.262,18.2624 102.596,19.2624 104.5,19.5C 104.973,20.9063 105.973,21.573 107.5,21.5C 107.973,22.9063 108.973,23.573 110.5,23.5C 110.973,24.9063 111.973,25.573 113.5,25.5C 114.262,27.2624 115.596,28.2624 117.5,28.5C 118.833,30.5 120.5,32.1667 122.5,33.5C 126.64,40.4361 129.64,47.7694 131.5,55.5C 131.784,57.4147 131.451,59.0813 130.5,60.5C 130.027,59.0937 129.027,58.427 127.5,58.5C 122.984,55.0734 117.984,52.4068 112.5,50.5C 110.167,47.5 107.5,44.8333 104.5,42.5C 104.573,40.9731 103.906,39.9731 102.5,39.5C 101.674,36.5152 100.341,33.8485 98.5,31.5C 97.0106,25.8756 95.6773,20.2089 94.5,14.5C 94.8333,14.1667 95.1667,13.8333 95.5,13.5C 96.9397,14.9524 98.6064,15.9524 100.5,16.5 Z"/></g>
<g><path style="opacity:1" fill="#d9d6d0" d="M 195.5,17.5 C 195.5,18.1667 195.5,18.8333 195.5,19.5C 193.825,17.998 191.992,16.6647 190,15.5C 189.667,17.1667 189.333,18.8333 189,20.5C 188.186,18.0982 188.353,15.7649 189.5,13.5C 191.529,14.8435 193.529,16.1769 195.5,17.5 Z"/></g>
<g><path style="opacity:1" fill="#d2cfc7" d="M 5.5,14.5 C 6.98467,20.7664 8.65134,27.0998 10.5,33.5C 7.13616,27.7166 5.46949,21.3833 5.5,14.5 Z"/></g>
<g><path style="opacity:1" fill="#e8e6e2" d="M 78.5,16.5 C 78.56,15.9569 78.8933,15.6236 79.5,15.5C 80.4742,17.7427 80.8076,20.076 80.5,22.5C 79.6618,22.1583 79.3284,21.4916 79.5,20.5C 79.5,19.5 79.5,18.5 79.5,17.5C 79.5,16.8333 79.1667,16.5 78.5,16.5 Z"/></g>
<g><path style="opacity:1" fill="#d0ccc3" d="M 167.5,15.5 C 168.742,17.6112 168.742,19.6112 167.5,21.5C 167.657,20.1266 167.49,18.7932 167,17.5C 166.329,18.2524 165.496,18.5858 164.5,18.5C 165.167,17.1667 166.167,16.1667 167.5,15.5 Z"/></g>
<g><path style="opacity:1" fill="#dddad3" d="M 11.5,16.5 C 13.4044,16.7376 14.7377,17.7376 15.5,19.5C 13.5956,19.2624 12.2623,18.2624 11.5,16.5 Z"/></g>
<g><path style="opacity:1" fill="#cfcbc2" d="M 78.5,16.5 C 79.1667,16.5 79.5,16.8333 79.5,17.5C 77.5,18.5 75.5,19.5 73.5,20.5C 74.5846,18.4131 76.2512,17.0798 78.5,16.5 Z"/></g>
<g><path style="opacity:1" fill="#c0bbb0" d="M 79.5,17.5 C 79.5,18.5 79.5,19.5 79.5,20.5C 78.9894,27.4753 77.8228,34.4753 76,41.5C 73.7165,45.6138 70.8831,49.2804 67.5,52.5C 65.9731,52.427 64.9731,53.0937 64.5,54.5C 64.1583,55.3382 63.4916,55.6716 62.5,55.5C 59.0078,56.4097 56.0078,58.0764 53.5,60.5C 51.9557,60.7031 50.6223,61.3698 49.5,62.5C 48.5344,60.604 48.2011,58.604 48.5,56.5C 49.8699,53.3811 50.8699,50.0477 51.5,46.5C 56.2934,35.7048 63.6267,27.0382 73.5,20.5C 75.5,19.5 77.5,18.5 79.5,17.5 Z"/></g>
<g><path style="opacity:1" fill="#d5d1ca" d="M 100.5,16.5 C 98.6064,15.9524 96.9397,14.9524 95.5,13.5C 95.1667,13.8333 94.8333,14.1667 94.5,14.5C 95.6773,20.2089 97.0106,25.8756 98.5,31.5C 95.3504,25.3251 93.6837,18.6585 93.5,11.5C 96.6433,11.969 98.9767,13.6356 100.5,16.5 Z"/></g>
<g><path style="opacity:1" fill="#dbd8d2" d="M 100.5,16.5 C 102.404,16.7376 103.738,17.7376 104.5,19.5C 102.596,19.2624 101.262,18.2624 100.5,16.5 Z"/></g>
<g><path style="opacity:1" fill="#c0bbaf" d="M 167.5,21.5 C 167.432,28.9783 166.432,36.3117 164.5,43.5C 163.094,43.9731 162.427,44.9731 162.5,46.5C 160.5,47.8333 158.833,49.5 157.5,51.5C 155.973,51.427 154.973,52.0937 154.5,53.5C 152.326,53.7497 150.659,54.7497 149.5,56.5C 148.486,57.6737 147.153,58.3404 145.5,58.5C 143.326,58.7497 141.659,59.7497 140.5,61.5C 139.391,61.5569 138.391,61.8902 137.5,62.5C 137.5,60.8333 137.5,59.1667 137.5,57.5C 137.5,56.5 137.5,55.5 137.5,54.5C 139.147,50.5763 140.814,46.5763 142.5,42.5C 144.541,37.7371 147.541,33.7371 151.5,30.5C 153.833,28.8333 155.833,26.8333 157.5,24.5C 159.214,21.7872 161.547,19.7872 164.5,18.5C 165.496,18.5858 166.329,18.2524 167,17.5C 167.49,18.7932 167.657,20.1266 167.5,21.5 Z"/></g>
<g><path style="opacity:1" fill="#beb9ad" d="M 45.5,17.5 C 47.4302,21.3727 48.0969,25.706 47.5,30.5C 47.8296,46.3422 47.4963,62.0089 46.5,77.5C 44.5636,73.2853 43.8969,68.6186 44.5,63.5C 44.5,61.5 44.5,59.5 44.5,57.5C 44.9544,44.1704 45.2877,30.8371 45.5,17.5 Z"/></g>
<g><path style="opacity:1" fill="#beb9ad" d="M 134.5,17.5 C 136.467,25.0968 137.134,33.0968 136.5,41.5C 135.505,53.3217 135.172,65.3217 135.5,77.5C 134.833,77.5 134.167,77.5 133.5,77.5C 133.27,57.4838 133.603,37.4838 134.5,17.5 Z"/></g>
<g><path style="opacity:1" fill="#dddad3" d="M 15.5,19.5 C 17.0269,19.427 18.0269,20.0937 18.5,21.5C 16.9731,21.573 15.9731,20.9063 15.5,19.5 Z"/></g>
<g><path style="opacity:1" fill="#dcd9d2" d="M 104.5,19.5 C 106.027,19.427 107.027,20.0937 107.5,21.5C 105.973,21.573 104.973,20.9063 104.5,19.5 Z"/></g>
<g><path style="opacity:1" fill="#dddad3" d="M 107.5,21.5 C 109.027,21.427 110.027,22.0937 110.5,23.5C 108.973,23.573 107.973,22.9063 107.5,21.5 Z"/></g>
<g><path style="opacity:1" fill="#dddad4" d="M 18.5,21.5 C 21.1979,21.8449 23.1979,23.1782 24.5,25.5C 22.1475,24.6597 20.1475,23.3264 18.5,21.5 Z"/></g>
<g><path style="opacity:1" fill="#dedbd5" d="M 110.5,23.5 C 112.027,23.427 113.027,24.0937 113.5,25.5C 111.973,25.573 110.973,24.9063 110.5,23.5 Z"/></g>
<g><path style="opacity:1" fill="#d9d5ce" d="M 45.5,17.5 C 46.5676,16.5655 47.901,16.2322 49.5,16.5C 49.5,21.5 49.5,26.5 49.5,31.5C 49.1667,31.5 48.8333,31.5 48.5,31.5C 48.5,30.8333 48.1667,30.5 47.5,30.5C 48.0969,25.706 47.4302,21.3727 45.5,17.5 Z"/></g>
<g><path style="opacity:1" fill="#dedcd6" d="M 24.5,25.5 C 26.0269,25.427 27.0269,26.0937 27.5,27.5C 25.9731,27.573 24.9731,26.9063 24.5,25.5 Z"/></g>
<g><path style="opacity:1" fill="#dddad4" d="M 113.5,25.5 C 115.404,25.7376 116.738,26.7376 117.5,28.5C 115.596,28.2624 114.262,27.2624 113.5,25.5 Z"/></g>
<g><path style="opacity:1" fill="#d1cdc5" d="M 189.5,22.5 C 191.088,24.5273 191.588,26.8606 191,29.5C 190.023,27.26 189.523,24.9267 189.5,22.5 Z"/></g>
<g><path style="opacity:1" fill="#cfcbc2" d="M 105.5,26.5 C 109.014,32.4205 108.014,33.5871 102.5,30C 103.539,28.3833 104.539,27.2166 105.5,26.5 Z"/></g>
<g><path style="opacity:1" fill="#dedbd5" d="M 117.5,28.5 C 120.167,29.1667 121.833,30.8333 122.5,33.5C 120.5,32.1667 118.833,30.5 117.5,28.5 Z"/></g>
<g><path style="opacity:1" fill="#d1cec5" d="M 157.5,24.5 C 155.833,26.8333 153.833,28.8333 151.5,30.5C 152.5,27.5 154.5,25.5 157.5,24.5 Z"/></g>
<g><path style="opacity:1" fill="#dad7d0" d="M 15.5,28.5 C 17.4459,29.2544 18.2793,30.5878 18,32.5C 16.2942,31.6921 15.4609,30.3588 15.5,28.5 Z"/></g>
<g><path style="opacity:1" fill="#dedcd6" d="M 27.5,27.5 C 30.8333,28.8333 33.1667,31.1667 34.5,34.5C 31.8333,32.5 29.5,30.1667 27.5,27.5 Z"/></g>
<g><path style="opacity:1" fill="#dfdcd6" d="M 79.5,20.5 C 79.3284,21.4916 79.6618,22.1583 80.5,22.5C 80.4364,30.9367 78.603,38.9367 75,46.5C 72.8943,49.1177 70.3943,51.1177 67.5,52.5C 70.8831,49.2804 73.7165,45.6138 76,41.5C 77.8228,34.4753 78.9894,27.4753 79.5,20.5 Z"/></g>
<g><path style="opacity:1" fill="#ccc8bf" d="M 45.5,17.5 C 45.2877,30.8371 44.9544,44.1704 44.5,57.5C 43.8333,56.8333 43.1667,56.1667 42.5,55.5C 42.5,55.1667 42.5,54.8333 42.5,54.5C 42.5,54.1667 42.5,53.8333 42.5,53.5C 43.3672,41.4907 44.3672,29.4907 45.5,17.5 Z"/></g>
<g><path style="opacity:1" fill="#d2cec6" d="M 157.5,30.5 C 158.267,31.172 158.934,32.0053 159.5,33C 158.167,34 158.167,35 159.5,36C 158.421,36.956 157.255,37.7894 156,38.5C 156.73,35.9792 157.23,33.3126 157.5,30.5 Z"/></g>
<g><path style="opacity:1" fill="#dedcd5" d="M 68.5,33.5 C 69.4646,34.7211 69.298,36.0544 68,37.5C 67.4209,36.0715 67.5876,34.7382 68.5,33.5 Z"/></g>
<g><path style="opacity:1" fill="#d5d1ca" d="M 98.5,31.5 C 100.341,33.8485 101.674,36.5152 102.5,39.5C 100.127,37.4208 98.7936,34.7541 98.5,31.5 Z"/></g>
<g><path style="opacity:1" fill="#d4d0c8" d="M 195.5,36.5 C 195.5,37.5 195.5,38.5 195.5,39.5C 193.538,37.575 192.705,35.2417 193,32.5C 193.608,34.0664 194.442,35.3998 195.5,36.5 Z"/></g>
<g><path style="opacity:1" fill="#e0ded8" d="M 112.5,37.5 C 114.283,38.1135 115.616,39.2802 116.5,41C 114.159,41.1681 112.826,40.0014 112.5,37.5 Z"/></g>
<g><path style="opacity:1" fill="#e3e1dc" d="M 24.5,38.5 C 26.337,38.6395 26.6704,39.3061 25.5,40.5C 24.7025,40.0431 24.3691,39.3764 24.5,38.5 Z"/></g>
<g><path style="opacity:1" fill="#d6d2cb" d="M 13.5,39.5 C 14.9063,39.9731 15.573,40.9731 15.5,42.5C 14.0937,42.0269 13.427,41.0269 13.5,39.5 Z"/></g>
<g><path style="opacity:1" fill="#e6e4e0" d="M 47.5,30.5 C 48.1667,30.5 48.5,30.8333 48.5,31.5C 48.5,39.8333 48.5,48.1667 48.5,56.5C 48.2011,58.604 48.5344,60.604 49.5,62.5C 50.6223,61.3698 51.9557,60.7031 53.5,60.5C 52.4923,62.3386 50.9923,63.6719 49,64.5C 48.8255,69.3514 48.3255,74.0181 47.5,78.5C 46.8333,78.5 46.5,78.1667 46.5,77.5C 47.4963,62.0089 47.8296,46.3422 47.5,30.5 Z"/></g>
<g><path style="opacity:1" fill="#d8d5cd" d="M 102.5,39.5 C 103.906,39.9731 104.573,40.9731 104.5,42.5C 103.094,42.0269 102.427,41.0269 102.5,39.5 Z"/></g>
<g><path style="opacity:1" fill="#e0ded8" d="M 167.5,15.5 C 168.748,16.3339 169.415,17.6672 169.5,19.5C 169.08,27.2946 167.913,34.9613 166,42.5C 165.617,43.056 165.117,43.3893 164.5,43.5C 166.432,36.3117 167.432,28.9783 167.5,21.5C 168.742,19.6112 168.742,17.6112 167.5,15.5 Z"/></g>
<g><path style="opacity:1" fill="#d8d5ce" d="M 104.5,42.5 C 107.5,44.8333 110.167,47.5 112.5,50.5C 108.833,48.8333 106.167,46.1667 104.5,42.5 Z"/></g>
<g><path style="opacity:1" fill="#dcd9d3" d="M 122.5,33.5 C 127.925,39.3608 130.925,46.3608 131.5,54.5C 131.5,54.8333 131.5,55.1667 131.5,55.5C 129.64,47.7694 126.64,40.4361 122.5,33.5 Z"/></g>
<g><path style="opacity:1" fill="#d8d5cd" d="M 15.5,42.5 C 18.5,44.8333 21.1667,47.5 23.5,50.5C 19.8333,48.8333 17.1667,46.1667 15.5,42.5 Z"/></g>
<g><path style="opacity:1" fill="#e0ddd7" d="M 164.5,43.5 C 164.573,45.0269 163.906,46.0269 162.5,46.5C 162.427,44.9731 163.094,43.9731 164.5,43.5 Z"/></g>
<g><path style="opacity:1" fill="#dcd9d3" d="M 34.5,34.5 C 39.4798,39.7494 42.1465,46.0827 42.5,53.5C 42.5,53.8333 42.5,54.1667 42.5,54.5C 40.438,47.6588 37.7713,40.9922 34.5,34.5 Z"/></g>
<g><path style="opacity:1" fill="#cac5bb" d="M 48.5,31.5 C 48.8333,31.5 49.1667,31.5 49.5,31.5C 49.3339,37.1764 49.5006,42.8431 50,48.5C 50.2784,47.5842 50.7784,46.9175 51.5,46.5C 50.8699,50.0477 49.8699,53.3811 48.5,56.5C 48.5,48.1667 48.5,39.8333 48.5,31.5 Z"/></g>
<g><path style="opacity:1" fill="#dad7d0" d="M 59.5,45.5 C 61.6569,46.0533 61.4903,47.0533 59,48.5C 58.5304,47.4232 58.6971,46.4232 59.5,45.5 Z"/></g>
<g><path style="opacity:1" fill="#cfcbc2" d="M 118.5,43.5 C 120.129,44.6253 121.629,45.9586 123,47.5C 123.333,46.8333 123.667,46.1667 124,45.5C 124.991,47.4473 125.325,49.4473 125,51.5C 122.749,49.6227 120.249,48.1227 117.5,47C 118.167,46.6667 118.833,46.3333 119.5,46C 118.748,45.3292 118.414,44.4959 118.5,43.5 Z"/></g>
<g><path style="opacity:1" fill="#dedcd6" d="M 147.5,45.5 C 151.243,45.4592 151.41,46.1259 148,47.5C 147.536,46.9056 147.369,46.2389 147.5,45.5 Z"/></g>
<g><path style="opacity:1" fill="#d2cec5" d="M 34.5,44.5 C 36.0881,46.5273 36.5881,48.8606 36,51.5C 34.4207,49.9588 32.5873,48.7922 30.5,48C 31.7604,46.887 32.927,46.7203 34,47.5C 34.4828,46.552 34.6495,45.552 34.5,44.5 Z"/></g>
<g><path style="opacity:1" fill="#d0ccc4" d="M 134.5,16.5 C 134.5,16.8333 134.5,17.1667 134.5,17.5C 133.603,37.4838 133.27,57.4838 133.5,77.5C 133.5,77.8333 133.5,78.1667 133.5,78.5C 132.673,73.3491 132.173,68.0158 132,62.5C 131.283,61.9558 130.783,61.2891 130.5,60.5C 131.451,59.0813 131.784,57.4147 131.5,55.5C 131.5,55.1667 131.5,54.8333 131.5,54.5C 132.33,44.0079 132.83,33.3412 133,22.5C 133.191,20.2922 133.691,18.2922 134.5,16.5 Z"/></g>
<g><path style="opacity:1" fill="#cecac1" d="M 142.5,42.5 C 140.814,46.5763 139.147,50.5763 137.5,54.5C 137.5,53.1667 137.5,51.8333 137.5,50.5C 138.653,47.53 140.32,44.8633 142.5,42.5 Z"/></g>
<g><path style="opacity:1" fill="#e5e3de" d="M 134.5,17.5 C 134.5,17.1667 134.5,16.8333 134.5,16.5C 135.5,16.5 136.5,16.5 137.5,16.5C 137.5,27.8333 137.5,39.1667 137.5,50.5C 137.5,51.8333 137.5,53.1667 137.5,54.5C 137.5,55.5 137.5,56.5 137.5,57.5C 136.512,52.3595 136.179,47.0262 136.5,41.5C 137.134,33.0968 136.467,25.0968 134.5,17.5 Z"/></g>
<g><path style="opacity:1" fill="#d7d4cc" d="M 162.5,46.5 C 161.833,49.1667 160.167,50.8333 157.5,51.5C 158.833,49.5 160.5,47.8333 162.5,46.5 Z"/></g>
<g><path style="opacity:1" fill="#dcd9d3" d="M 67.5,52.5 C 67.0269,53.9063 66.0269,54.573 64.5,54.5C 64.9731,53.0937 65.9731,52.427 67.5,52.5 Z"/></g>
<g><path style="opacity:1" fill="#dddad4" d="M 157.5,51.5 C 157.027,52.9063 156.027,53.573 154.5,53.5C 154.973,52.0937 155.973,51.427 157.5,51.5 Z"/></g>
<g><path style="opacity:1" fill="#d9d6cf" d="M 23.5,50.5 C 28.9843,52.4068 33.9843,55.0734 38.5,58.5C 33.0157,56.5932 28.0157,53.9266 23.5,50.5 Z"/></g>
<g><path style="opacity:1" fill="#dbd8d1" d="M 154.5,53.5 C 153.341,55.2503 151.674,56.2503 149.5,56.5C 150.659,54.7497 152.326,53.7497 154.5,53.5 Z"/></g>
<g><path style="opacity:1" fill="#cdc9c0" d="M 136.5,41.5 C 136.179,47.0262 136.512,52.3595 137.5,57.5C 137.5,59.1667 137.5,60.8333 137.5,62.5C 136.833,67.5 136.167,72.5 135.5,77.5C 135.172,65.3217 135.505,53.3217 136.5,41.5 Z"/></g>
<g><path style="opacity:1" fill="#d9d6cf" d="M 112.5,50.5 C 117.984,52.4068 122.984,55.0734 127.5,58.5C 122.016,56.5932 117.016,53.9266 112.5,50.5 Z"/></g>
<g><path style="opacity:1" fill="#dedcd6" d="M 42.5,55.5 C 43.1667,56.1667 43.8333,56.8333 44.5,57.5C 44.5,59.5 44.5,61.5 44.5,63.5C 44.1667,63.5 43.8333,63.5 43.5,63.5C 43.1667,62.8333 42.8333,62.1667 42.5,61.5C 43.2907,59.6907 43.2907,57.6907 42.5,55.5 Z"/></g>
<g><path style="opacity:1" fill="#dbd8d1" d="M 62.5,55.5 C 59.9922,57.9236 56.9922,59.5903 53.5,60.5C 56.0078,58.0764 59.0078,56.4097 62.5,55.5 Z"/></g>
<g><path style="opacity:1" fill="#d5d2ca" d="M 127.5,58.5 C 129.027,58.427 130.027,59.0937 130.5,60.5C 128.973,60.573 127.973,59.9063 127.5,58.5 Z"/></g>
<g><path style="opacity:1" fill="#dddad4" d="M 145.5,58.5 C 144.341,60.2503 142.674,61.2503 140.5,61.5C 141.659,59.7497 143.326,58.7497 145.5,58.5 Z"/></g>
<g><path style="opacity:1" fill="#dfdcd6" d="M 140.5,61.5 C 139.878,62.6266 139.045,63.6266 138,64.5C 137.501,69.1548 137.334,73.8215 137.5,78.5C 136.167,78.5 134.833,78.5 133.5,78.5C 133.5,78.1667 133.5,77.8333 133.5,77.5C 134.167,77.5 134.833,77.5 135.5,77.5C 136.167,72.5 136.833,67.5 137.5,62.5C 138.391,61.8902 139.391,61.5569 140.5,61.5 Z"/></g>
<g><path style="opacity:1" fill="#c9c5bb" d="M 43.5,63.5 C 43.8333,63.5 44.1667,63.5 44.5,63.5C 43.8969,68.6186 44.5636,73.2853 46.5,77.5C 46.5,78.1667 46.8333,78.5 47.5,78.5C 46.4583,79.7911 45.2917,79.7911 44,78.5C 43.5007,73.5111 43.3341,68.5111 43.5,63.5 Z"/></g>
<g><path style="opacity:1" fill="#c0bbaf" d="M 100.5,88.5 C 100.973,89.9063 101.973,90.573 103.5,90.5C 103.973,91.9063 104.973,92.573 106.5,92.5C 106.973,93.9063 107.973,94.573 109.5,94.5C 109.973,95.9063 110.973,96.573 112.5,96.5C 113.911,98.914 115.911,100.581 118.5,101.5C 119.08,103.749 120.413,105.415 122.5,106.5C 125.577,112.471 127.577,118.804 128.5,125.5C 130.361,129.015 129.694,130.348 126.5,129.5C 121.984,126.073 116.984,123.407 111.5,121.5C 110.738,119.738 109.404,118.738 107.5,118.5C 105.5,117.833 104.167,116.5 103.5,114.5C 103.573,112.973 102.906,111.973 101.5,111.5C 101.573,109.973 100.906,108.973 99.5,108.5C 97.3754,105.912 96.0421,102.912 95.5,99.5C 94.9166,95.663 94.2499,91.8297 93.5,88C 93.8333,86.8333 94.1667,85.6667 94.5,84.5C 96.264,86.2776 98.264,87.6109 100.5,88.5 Z"/></g>
<g><path style="opacity:1" fill="#d4d1c9" d="M 10.5,87.5 C 8.60638,86.9524 6.93972,85.9524 5.5,84.5C 5.16667,85.5 4.83333,86.5 4.5,87.5C 5.50145,91.1496 6.00145,94.8163 6,98.5C 4.41782,93.5832 3.25116,88.5832 2.5,83.5C 2.80762,82.6919 3.30762,82.0253 4,81.5C 6.66373,82.9984 8.8304,84.9984 10.5,87.5 Z"/></g>
<g><path style="opacity:1" fill="#c0bbb0" d="M 164.5,87.5 C 166.24,96.9924 165.24,106.326 161.5,115.5C 158.833,117.5 156.5,119.833 154.5,122.5C 152.973,122.427 151.973,123.094 151.5,124.5C 148.008,125.41 145.008,127.076 142.5,129.5C 140.243,129.962 138.243,130.962 136.5,132.5C 135.511,128.893 135.177,125.226 135.5,121.5C 137.819,115.527 141.153,110.193 145.5,105.5C 147.587,104.415 148.92,102.749 149.5,100.5C 149.833,99.5 150.5,98.8333 151.5,98.5C 155.1,96.5698 158.1,93.9031 160.5,90.5C 161.262,88.7376 162.596,87.7376 164.5,87.5 Z"/></g>
<g><path style="opacity:1" fill="#d6d3cc" d="M 191.5,87.5 C 189.983,87.4894 188.816,86.8228 188,85.5C 187.721,89.1703 187.888,92.837 188.5,96.5C 186.493,92.4063 186.16,88.073 187.5,83.5C 189.188,84.5213 190.521,85.8546 191.5,87.5 Z"/></g>
<g><path style="opacity:1" fill="#dbd9d2" d="M 10.5,87.5 C 12.4044,87.7376 13.7377,88.7376 14.5,90.5C 12.5956,90.2624 11.2623,89.2624 10.5,87.5 Z"/></g>
<g><path style="opacity:1" fill="#beb9ad" d="M 45.5,106.5 C 45.5,120.167 45.5,133.833 45.5,147.5C 44.5,147.5 43.5,147.5 42.5,147.5C 42.5,142.833 42.5,138.167 42.5,133.5C 42.5,131.5 42.5,129.5 42.5,127.5C 42.5747,117.822 42.9081,108.156 43.5,98.5C 43.1796,95.1016 43.513,91.7683 44.5,88.5C 45.4959,94.4632 45.8293,100.463 45.5,106.5 Z"/></g>
<g><path style="opacity:1" fill="#c0bbb0" d="M 75.5,87.5 C 76.6491,87.7911 77.3158,88.6244 77.5,90C 76.8566,97.5625 75.8566,105.062 74.5,112.5C 74.6716,113.492 74.3382,114.158 73.5,114.5C 72.0937,114.973 71.427,115.973 71.5,117.5C 71.5,119.5 70.5,120.5 68.5,120.5C 66.5956,120.738 65.2623,121.738 64.5,123.5C 62.9731,123.427 61.9731,124.094 61.5,125.5C 60.4863,126.674 59.153,127.34 57.5,127.5C 54.6689,128.079 52.3356,129.412 50.5,131.5C 48.9826,131.511 47.8159,132.177 47,133.5C 46.5045,131.527 46.3379,129.527 46.5,127.5C 47.531,125.039 48.1977,122.373 48.5,119.5C 50.341,117.151 51.6743,114.485 52.5,111.5C 53.5293,108.109 55.5293,105.443 58.5,103.5C 62.5,100.167 66.1667,96.5 69.5,92.5C 70.8908,90.1097 72.8908,88.4431 75.5,87.5 Z"/></g>
<g><path style="opacity:1" fill="#d3d0c8" d="M 100.5,88.5 C 98.264,87.6109 96.264,86.2776 94.5,84.5C 94.1667,85.6667 93.8333,86.8333 93.5,88C 94.2499,91.8297 94.9166,95.663 95.5,99.5C 93.003,94.1843 91.8364,88.5176 92,82.5C 95.5906,82.8487 98.4239,84.8487 100.5,88.5 Z"/></g>
<g><path style="opacity:1" fill="#dcdad3" d="M 100.5,88.5 C 102.027,88.427 103.027,89.0937 103.5,90.5C 101.973,90.573 100.973,89.9063 100.5,88.5 Z"/></g>
<g><path style="opacity:1" fill="#beb9ad" d="M 134.5,88.5 C 134.5,96.1667 134.5,103.833 134.5,111.5C 133.833,123.34 133.167,135.34 132.5,147.5C 131.508,143.217 131.174,138.884 131.5,134.5C 131.333,121.496 131.5,108.496 132,95.5C 131.97,92.6385 132.803,90.3052 134.5,88.5 Z"/></g>
<g><path style="opacity:1" fill="#dad7d0" d="M 191.5,87.5 C 193.062,87.7329 194.395,88.3995 195.5,89.5C 195.5,90.1667 195.5,90.8333 195.5,91.5C 193.833,90.5 192.5,89.1667 191.5,87.5 Z"/></g>
<g><path style="opacity:1" fill="#dcdad3" d="M 14.5,90.5 C 16.0269,90.427 17.0269,91.0937 17.5,92.5C 15.9731,92.573 14.9731,91.9063 14.5,90.5 Z"/></g>
<g><path style="opacity:1" fill="#dcd9d3" d="M 103.5,90.5 C 105.027,90.427 106.027,91.0937 106.5,92.5C 104.973,92.573 103.973,91.9063 103.5,90.5 Z"/></g>
<g><path style="opacity:1" fill="#dddad4" d="M 106.5,92.5 C 108.027,92.427 109.027,93.0937 109.5,94.5C 107.973,94.573 106.973,93.9063 106.5,92.5 Z"/></g>
<g><path style="opacity:1" fill="#cfcbc2" d="M 69.5,92.5 C 66.1667,96.5 62.5,100.167 58.5,103.5C 61.1667,98.8333 64.8333,95.1667 69.5,92.5 Z"/></g>
<g><path style="opacity:1" fill="#dddad4" d="M 17.5,92.5 C 20.1979,92.8449 22.1979,94.1782 23.5,96.5C 21.1475,95.6597 19.1475,94.3264 17.5,92.5 Z"/></g>
<g><path style="opacity:1" fill="#dedbd5" d="M 109.5,94.5 C 111.027,94.427 112.027,95.0937 112.5,96.5C 110.973,96.573 109.973,95.9063 109.5,94.5 Z"/></g>
<g><path style="opacity:1" fill="#cbc7be" d="M 160.5,90.5 C 158.1,93.9031 155.1,96.5698 151.5,98.5C 153.9,95.0969 156.9,92.4302 160.5,90.5 Z"/></g>
<g><path style="opacity:1" fill="#d8d5ce" d="M 46.5,106.5 C 46.1667,106.5 45.8333,106.5 45.5,106.5C 45.8293,100.463 45.4959,94.4632 44.5,88.5C 43.513,91.7683 43.1796,95.1016 43.5,98.5C 43.1667,98.5 42.8333,98.5 42.5,98.5C 42.5,94.8333 42.5,91.1667 42.5,87.5C 44.1667,87.5 45.8333,87.5 47.5,87.5C 47.8235,94.0221 47.4902,100.355 46.5,106.5 Z"/></g>
<g><path style="opacity:1" fill="#dedbd5" d="M 23.5,96.5 C 25.4044,96.7376 26.7377,97.7376 27.5,99.5C 25.5956,99.2624 24.2623,98.2624 23.5,96.5 Z"/></g>
<g><path style="opacity:1" fill="#dedbd4" d="M 112.5,96.5 C 115.089,97.4194 117.089,99.086 118.5,101.5C 115.911,100.581 113.911,98.914 112.5,96.5 Z"/></g>
<g><path style="opacity:1" fill="#cfcbc2" d="M 17.5,103.5 C 12.8508,102.749 11.0175,100.416 12,96.5C 14.4295,98.4221 16.2628,100.755 17.5,103.5 Z"/></g>
<g><path style="opacity:1" fill="#dbd9d2" d="M 27.5,99.5 C 29.8333,99.8333 31.1667,101.167 31.5,103.5C 29.8333,102.5 28.5,101.167 27.5,99.5 Z"/></g>
<g><path style="opacity:1" fill="#d2cec6" d="M 188.5,96.5 C 190.236,99.2145 191.07,102.214 191,105.5C 189.451,102.688 188.618,99.6883 188.5,96.5 Z"/></g>
<g><path style="opacity:1" fill="#d2cfc7" d="M 66.5,101.5 C 67.6063,102.149 68.6063,102.483 69.5,102.5C 69.0233,103.478 68.3567,104.311 67.5,105C 67.8333,105.333 68.1667,105.667 68.5,106C 67.3333,107.167 66.1667,108.333 65,109.5C 65.7296,106.979 66.2296,104.313 66.5,101.5 Z"/></g>
<g><path style="opacity:1" fill="#d0ccc3" d="M 149.5,100.5 C 148.92,102.749 147.587,104.415 145.5,105.5C 146.08,103.251 147.413,101.585 149.5,100.5 Z"/></g>
<g><path style="opacity:1" fill="#d2cfc7" d="M 17.5,103.5 C 24.737,109.217 30.5703,115.884 35,123.5C 33.1266,121.291 30.96,119.458 28.5,118C 28.8333,117.667 29.1667,117.333 29.5,117C 26.6514,113.143 22.9847,110.477 18.5,109C 19.1667,108.667 19.8333,108.333 20.5,108C 18.8588,106.871 17.8588,105.371 17.5,103.5 Z"/></g>
<g><path style="opacity:1" fill="#dedbd5" d="M 74.5,112.5 C 75.8566,105.062 76.8566,97.5625 77.5,90C 77.3158,88.6244 76.6491,87.7911 75.5,87.5C 75.811,86.5222 76.4777,85.8555 77.5,85.5C 78.4464,92.8303 78.2797,100.164 77,107.5C 76.6264,109.491 75.793,111.158 74.5,112.5 Z"/></g>
<g><path style="opacity:1" fill="#dedbd5" d="M 118.5,101.5 C 120.587,102.585 121.92,104.251 122.5,106.5C 120.413,105.415 119.08,103.749 118.5,101.5 Z"/></g>
<g><path style="opacity:1" fill="#d4d1c9" d="M 11.5,109.5 C 8.96315,107.427 7.79649,104.76 8,101.5C 9.45382,104.071 10.6205,106.738 11.5,109.5 Z"/></g>
<g><path style="opacity:1" fill="#dedcd6" d="M 31.5,103.5 C 33.982,104.804 35.1487,106.804 35,109.5C 33.5576,107.609 32.3909,105.609 31.5,103.5 Z"/></g>
<g><path style="opacity:1" fill="#dfddd7" d="M 161.5,115.5 C 165.24,106.326 166.24,96.9924 164.5,87.5C 164.811,86.5222 165.478,85.8555 166.5,85.5C 167.388,94.6219 166.555,103.622 164,112.5C 163.623,113.942 162.79,114.942 161.5,115.5 Z"/></g>
<g><path style="opacity:1" fill="#dedbd5" d="M 155.5,103.5 C 156.325,105.125 155.992,106.792 154.5,108.5C 154.167,108.333 153.833,108.167 153.5,108C 154.267,106.53 154.933,105.03 155.5,103.5 Z"/></g>
<g><path style="opacity:1" fill="#dcd9d3" d="M 122.5,106.5 C 126.982,111.936 129.315,118.269 129.5,125.5C 129.167,125.5 128.833,125.5 128.5,125.5C 127.577,118.804 125.577,112.471 122.5,106.5 Z"/></g>
<g><path style="opacity:1" fill="#d6d3cb" d="M 99.5,108.5 C 100.906,108.973 101.573,109.973 101.5,111.5C 100.094,111.027 99.427,110.027 99.5,108.5 Z"/></g>
<g><path style="opacity:1" fill="#d7d4cd" d="M 11.5,109.5 C 12.9063,109.973 13.573,110.973 13.5,112.5C 12.0937,112.027 11.427,111.027 11.5,109.5 Z"/></g>
<g><path style="opacity:1" fill="#d6d4cc" d="M 195.5,110.5 C 195.5,111.167 195.5,111.833 195.5,112.5C 192.813,110.606 192.813,109.939 195.5,110.5 Z"/></g>
<g><path style="opacity:1" fill="#cecac1" d="M 52.5,111.5 C 51.6743,114.485 50.341,117.151 48.5,119.5C 48.7936,116.246 50.127,113.579 52.5,111.5 Z"/></g>
<g><path style="opacity:1" fill="#d8d5ce" d="M 101.5,111.5 C 102.906,111.973 103.573,112.973 103.5,114.5C 102.094,114.027 101.427,113.027 101.5,111.5 Z"/></g>
<g><path style="opacity:1" fill="#d4d0c8" d="M 102.5,99.5 C 105.464,101.962 108.297,104.629 111,107.5C 111.333,106.833 111.667,106.167 112,105.5C 112.751,109.266 114.751,112.266 118,114.5C 118.667,115.167 118.667,115.833 118,116.5C 115.313,112.806 111.813,110.306 107.5,109C 108.167,108.667 108.833,108.333 109.5,108C 106.553,105.564 104.22,102.731 102.5,99.5 Z"/></g>
<g><path style="opacity:1" fill="#d9d6cf" d="M 13.5,112.5 C 15.0847,113.002 15.5847,114.002 15,115.5C 13.9614,114.756 13.4614,113.756 13.5,112.5 Z"/></g>
<g><path style="opacity:1" fill="#dedcd6" d="M 73.5,114.5 C 73.573,116.027 72.9063,117.027 71.5,117.5C 71.427,115.973 72.0937,114.973 73.5,114.5 Z"/></g>
<g><path style="opacity:1" fill="#dcd9d3" d="M 146.5,115.5 C 150.339,115.612 150.339,116.279 146.5,117.5C 145.537,117.03 145.537,116.363 146.5,115.5 Z"/></g>
<g><path style="opacity:1" fill="#dbd8d2" d="M 57.5,115.5 C 59.6569,116.053 59.4903,117.053 57,118.5C 56.5304,117.423 56.6971,116.423 57.5,115.5 Z"/></g>
<g><path style="opacity:1" fill="#ccc8bf" d="M 42.5,98.5 C 42.8333,98.5 43.1667,98.5 43.5,98.5C 42.9081,108.156 42.5747,117.822 42.5,127.5C 41.6554,126.329 40.9887,124.995 40.5,123.5C 41.3297,115.326 41.9964,106.992 42.5,98.5 Z"/></g>
<g><path style="opacity:1" fill="#d1cec6" d="M 135.5,87.5 C 134.833,87.5 134.5,87.8333 134.5,88.5C 132.803,90.3052 131.97,92.6385 132,95.5C 131.5,108.496 131.333,121.496 131.5,134.5C 131.167,134.5 130.833,134.5 130.5,134.5C 129.167,132.833 127.833,131.167 126.5,129.5C 129.694,130.348 130.361,129.015 128.5,125.5C 128.833,125.5 129.167,125.5 129.5,125.5C 130.151,112.972 130.984,100.305 132,87.5C 133.292,86.2089 134.458,86.2089 135.5,87.5 Z"/></g>
<g><path style="opacity:1" fill="#d9d6cf" d="M 17.5,118.5 C 17.56,117.957 17.8933,117.624 18.5,117.5C 23.6185,122.111 23.2851,122.444 17.5,118.5 Z"/></g>
<g><path style="opacity:1" fill="#d8d6cf" d="M 107.5,118.5 C 109.404,118.738 110.738,119.738 111.5,121.5C 109.596,121.262 108.262,120.262 107.5,118.5 Z"/></g>
<g><path style="opacity:1" fill="#dddad4" d="M 119.5,117.5 C 122.428,118.575 123.928,120.575 124,123.5C 121.873,121.886 120.373,119.886 119.5,117.5 Z"/></g>
<g><path style="opacity:1" fill="#dcd9d2" d="M 161.5,115.5 C 160.167,118.833 157.833,121.167 154.5,122.5C 156.5,119.833 158.833,117.5 161.5,115.5 Z"/></g>
<g><path style="opacity:1" fill="#cfcbc3" d="M 48.5,119.5 C 48.1977,122.373 47.531,125.039 46.5,127.5C 46.5,125.5 46.5,123.5 46.5,121.5C 47.1667,120.833 47.8333,120.167 48.5,119.5 Z"/></g>
<g><path style="opacity:1" fill="#dcdad3" d="M 68.5,120.5 C 67.7377,122.262 66.4044,123.262 64.5,123.5C 65.2623,121.738 66.5956,120.738 68.5,120.5 Z"/></g>
<g><path style="opacity:1" fill="#dbd9d2" d="M 64.5,123.5 C 64.0269,124.906 63.0269,125.573 61.5,125.5C 61.9731,124.094 62.9731,123.427 64.5,123.5 Z"/></g>
<g><path style="opacity:1" fill="#d9d6cf" d="M 111.5,121.5 C 116.984,123.407 121.984,126.073 126.5,129.5C 121.016,127.593 116.016,124.927 111.5,121.5 Z"/></g>
<g><path style="opacity:1" fill="#dcdad3" d="M 154.5,122.5 C 154.027,123.906 153.027,124.573 151.5,124.5C 151.973,123.094 152.973,122.427 154.5,122.5 Z"/></g>
<g><path style="opacity:1" fill="#d8d5ce" d="M 40.5,123.5 C 40.9887,124.995 41.6554,126.329 42.5,127.5C 42.5,129.5 42.5,131.5 42.5,133.5C 42.1667,133.5 41.8333,133.5 41.5,133.5C 36.2324,129.524 30.5657,126.024 24.5,123C 30.0262,124.511 35.1929,127.011 40,130.5C 39.4725,124.066 38.4725,117.733 37,111.5C 38.8808,115.307 40.0474,119.307 40.5,123.5 Z"/></g>
<g><path style="opacity:1" fill="#ccc8be" d="M 134.5,111.5 C 134.172,123.678 134.505,135.678 135.5,147.5C 134.365,149.213 132.698,149.88 130.5,149.5C 130.5,144.5 130.5,139.5 130.5,134.5C 130.833,134.5 131.167,134.5 131.5,134.5C 131.174,138.884 131.508,143.217 132.5,147.5C 133.167,135.34 133.833,123.34 134.5,111.5 Z"/></g>
<g><path style="opacity:1" fill="#dbd8d1" d="M 151.5,124.5 C 148.992,126.924 145.992,128.59 142.5,129.5C 145.008,127.076 148.008,125.41 151.5,124.5 Z"/></g>
<g><path style="opacity:1" fill="#dcd9d2" d="M 57.5,127.5 C 55.6644,129.588 53.3311,130.921 50.5,131.5C 52.3356,129.412 54.6689,128.079 57.5,127.5 Z"/></g>
<g><path style="opacity:1" fill="#e6e4e0" d="M 45.5,106.5 C 45.8333,106.5 46.1667,106.5 46.5,106.5C 46.5,111.5 46.5,116.5 46.5,121.5C 46.5,123.5 46.5,125.5 46.5,127.5C 46.3379,129.527 46.5045,131.527 47,133.5C 47.8159,132.177 48.9826,131.511 50.5,131.5C 49.5423,132.962 48.3756,134.295 47,135.5C 46.8247,140.019 46.3247,144.353 45.5,148.5C 45.5,148.167 45.5,147.833 45.5,147.5C 45.5,133.833 45.5,120.167 45.5,106.5 Z"/></g>
<g><path style="opacity:1" fill="#e0ded8" d="M 135.5,87.5 C 135.5,98.8333 135.5,110.167 135.5,121.5C 135.177,125.226 135.511,128.893 136.5,132.5C 138.243,130.962 140.243,129.962 142.5,129.5C 140.571,131.148 138.571,132.815 136.5,134.5C 135.508,138.783 135.174,143.116 135.5,147.5C 134.505,135.678 134.172,123.678 134.5,111.5C 134.5,103.833 134.5,96.1667 134.5,88.5C 134.5,87.8333 134.833,87.5 135.5,87.5 Z"/></g>
<g><path style="opacity:1" fill="#cac5bb" d="M 41.5,133.5 C 41.8333,133.5 42.1667,133.5 42.5,133.5C 42.5,138.167 42.5,142.833 42.5,147.5C 43.5,147.5 44.5,147.5 45.5,147.5C 45.5,147.833 45.5,148.167 45.5,148.5C 44.4583,149.791 43.2917,149.791 42,148.5C 41.5007,143.511 41.3341,138.511 41.5,133.5 Z"/></g>
<g><path style="opacity:1" fill="#e3e0db" d="M 2.5,153.5 C 2.5,153.167 2.5,152.833 2.5,152.5C 4.02694,152.427 5.02694,153.094 5.5,154.5C 4.39105,154.443 3.39105,154.11 2.5,153.5 Z"/></g>
<g><path style="opacity:1" fill="#dcdad3" d="M 96.5,156.5 C 94.629,156.141 93.129,155.141 92,153.5C 91.7679,154.737 91.2679,155.737 90.5,156.5C 90.2308,154.571 90.7308,152.905 92,151.5C 93.7073,153.037 95.2073,154.704 96.5,156.5 Z"/></g>
<g><path style="opacity:1" fill="#c0bbaf" d="M 2.5,153.5 C 3.39105,154.11 4.39105,154.443 5.5,154.5C 6.5387,156.531 8.20537,157.864 10.5,158.5C 11.2623,160.262 12.5956,161.262 14.5,161.5C 16.9754,164.241 19.9754,166.241 23.5,167.5C 26.1667,170.833 29.1667,173.833 32.5,176.5C 35.702,182.44 37.702,188.773 38.5,195.5C 40.3606,199.015 39.6939,200.348 36.5,199.5C 35.5084,199.672 34.8417,199.338 34.5,198.5C 33.089,196.461 31.089,195.461 28.5,195.5C 27.5084,195.672 26.8417,195.338 26.5,194.5C 24.178,192.336 21.5113,190.669 18.5,189.5C 17.1667,187.5 15.5,185.833 13.5,184.5C 13.573,182.973 12.9063,181.973 11.5,181.5C 11.573,179.973 10.9063,178.973 9.5,178.5C 8.32627,177.486 7.6596,176.153 7.5,174.5C 5.36146,167.612 3.69479,160.612 2.5,153.5 Z"/></g>
<g><path style="opacity:1" fill="#c0bcb0" d="M 96.5,156.5 C 97.2623,158.262 98.5956,159.262 100.5,159.5C 100.973,160.906 101.973,161.573 103.5,161.5C 103.973,162.906 104.973,163.573 106.5,163.5C 106.973,164.906 107.973,165.573 109.5,165.5C 109.973,166.906 110.973,167.573 112.5,167.5C 114.833,170.5 117.5,173.167 120.5,175.5C 120.427,177.027 121.094,178.027 122.5,178.5C 123.674,179.514 124.34,180.847 124.5,182.5C 125.96,188.467 127.293,194.467 128.5,200.5C 128.5,201.167 128.167,201.5 127.5,201.5C 122.798,198.818 118.131,196.151 113.5,193.5C 112.341,191.75 110.674,190.75 108.5,190.5C 106.5,187.833 104.167,185.5 101.5,183.5C 101.573,181.973 100.906,180.973 99.5,180.5C 98.6618,180.158 98.3284,179.492 98.5,178.5C 98.0075,176.181 97.0075,174.181 95.5,172.5C 95.0719,169.215 94.0719,166.215 92.5,163.5C 91.5933,161.343 90.9267,159.01 90.5,156.5C 91.2679,155.737 91.7679,154.737 92,153.5C 93.129,155.141 94.629,156.141 96.5,156.5 Z"/></g>
<g><path style="opacity:1" fill="#dbd8d2" d="M 5.5,154.5 C 7.74876,155.08 9.41543,156.413 10.5,158.5C 8.20537,157.864 6.5387,156.531 5.5,154.5 Z"/></g>
<g><path style="opacity:1" fill="#e1dfd9" d="M 69.5,188.5 C 74.0127,179.634 76.346,170.134 76.5,160C 76.3158,158.624 75.6491,157.791 74.5,157.5C 74.811,156.522 75.4777,155.855 76.5,155.5C 77.331,163.873 76.831,172.206 75,180.5C 73.884,183.756 72.0507,186.422 69.5,188.5 Z"/></g>
<g><path style="opacity:1" fill="#dedbd4" d="M 192.5,159.5 C 189.925,158.272 187.592,156.605 185.5,154.5C 186.002,153.479 186.668,153.312 187.5,154C 189.373,155.704 191.04,157.537 192.5,159.5 Z"/></g>
<g><path style="opacity:1" fill="#d1cec5" d="M 2.5,152.5 C 2.5,152.833 2.5,153.167 2.5,153.5C 3.69479,160.612 5.36146,167.612 7.5,174.5C 3.59314,167.55 1.92648,160.217 2.5,152.5 Z"/></g>
<g><path style="opacity:1" fill="#dddad4" d="M 96.5,156.5 C 98.4044,156.738 99.7377,157.738 100.5,159.5C 98.5956,159.262 97.2623,158.262 96.5,156.5 Z"/></g>
<g><path style="opacity:1" fill="#c0bbaf" d="M 163.5,157.5 C 164.779,166.917 163.779,176.25 160.5,185.5C 157.833,187.5 155.5,189.833 153.5,192.5C 149.827,194 146.494,196 143.5,198.5C 143.158,199.338 142.492,199.672 141.5,199.5C 139.243,199.962 137.243,200.962 135.5,202.5C 134.571,201.311 134.238,199.978 134.5,198.5C 134.5,195.833 134.5,193.167 134.5,190.5C 135.167,189.833 135.833,189.167 136.5,188.5C 138.008,186.819 139.008,184.819 139.5,182.5C 140.433,179.63 142.1,177.296 144.5,175.5C 146.587,174.415 147.92,172.749 148.5,170.5C 148.833,169.5 149.5,168.833 150.5,168.5C 154.1,166.57 157.1,163.903 159.5,160.5C 160.262,158.738 161.596,157.738 163.5,157.5 Z"/></g>
<g><path style="opacity:1" fill="#beb9ad" d="M 44.5,181.5 C 43.5048,193.655 43.1714,205.989 43.5,218.5C 42.1691,211.197 41.5024,203.53 41.5,195.5C 41.3704,183.117 42.0371,170.783 43.5,158.5C 44.4975,166.138 44.8308,173.804 44.5,181.5 Z"/></g>
<g><path style="opacity:1" fill="#c0bcb0" d="M 74.5,157.5 C 75.6491,157.791 76.3158,158.624 76.5,160C 76.346,170.134 74.0127,179.634 69.5,188.5C 69.5,189.833 68.8333,190.5 67.5,190.5C 65.5956,190.738 64.2623,191.738 63.5,193.5C 61.9731,193.427 60.9731,194.094 60.5,195.5C 59.4863,196.674 58.153,197.34 56.5,197.5C 53.6689,198.079 51.3356,199.412 49.5,201.5C 47.9382,201.733 46.6049,202.4 45.5,203.5C 45.5,202.5 45.5,201.5 45.5,200.5C 45.5,197.5 45.5,194.5 45.5,191.5C 48.2929,184.705 52.2929,178.705 57.5,173.5C 61.5,170.167 65.1667,166.5 68.5,162.5C 69.8908,160.11 71.8908,158.443 74.5,157.5 Z"/></g>
<g><path style="opacity:1" fill="#beb9ad" d="M 131.5,158.5 C 133.453,164.074 134.12,170.074 133.5,176.5C 133.161,190.696 132.161,204.696 130.5,218.5C 130.215,198.473 130.548,178.473 131.5,158.5 Z"/></g>
<g><path style="opacity:1" fill="#d2cfc7" d="M 185.5,156.5 C 186.949,160.981 187.782,165.648 188,170.5C 186.208,166 185.375,161.333 185.5,156.5 Z"/></g>
<g><path style="opacity:1" fill="#dcd9d2" d="M 10.5,158.5 C 12.4044,158.738 13.7377,159.738 14.5,161.5C 12.5956,161.262 11.2623,160.262 10.5,158.5 Z"/></g>
<g><path style="opacity:1" fill="#dcdad3" d="M 100.5,159.5 C 102.027,159.427 103.027,160.094 103.5,161.5C 101.973,161.573 100.973,160.906 100.5,159.5 Z"/></g>
<g><path style="opacity:1" fill="#dddad4" d="M 192.5,159.5 C 193.609,159.557 194.609,159.89 195.5,160.5C 195.5,160.833 195.5,161.167 195.5,161.5C 193.973,161.573 192.973,160.906 192.5,159.5 Z"/></g>
<g><path style="opacity:1" fill="#dddad4" d="M 103.5,161.5 C 105.027,161.427 106.027,162.094 106.5,163.5C 104.973,163.573 103.973,162.906 103.5,161.5 Z"/></g>
<g><path style="opacity:1" fill="#dcd9d3" d="M 14.5,161.5 C 18.0495,162.723 21.0495,164.723 23.5,167.5C 19.9754,166.241 16.9754,164.241 14.5,161.5 Z"/></g>
<g><path style="opacity:1" fill="#dedbd5" d="M 106.5,163.5 C 108.027,163.427 109.027,164.094 109.5,165.5C 107.973,165.573 106.973,164.906 106.5,163.5 Z"/></g>
<g><path style="opacity:1" fill="#cbc7bd" d="M 159.5,160.5 C 157.1,163.903 154.1,166.57 150.5,168.5C 152.9,165.097 155.9,162.43 159.5,160.5 Z"/></g>
<g><path style="opacity:1" fill="#dfdcd6" d="M 160.5,185.5 C 163.779,176.25 164.779,166.917 163.5,157.5C 163.811,156.522 164.478,155.855 165.5,155.5C 166.378,164.624 165.545,173.624 163,182.5C 162.623,183.942 161.79,184.942 160.5,185.5 Z"/></g>
<g><path style="opacity:1" fill="#cecbc2" d="M 68.5,162.5 C 65.1667,166.5 61.5,170.167 57.5,173.5C 60.1667,168.833 63.8333,165.167 68.5,162.5 Z"/></g>
<g><path style="opacity:1" fill="#dfdcd6" d="M 109.5,165.5 C 111.027,165.427 112.027,166.094 112.5,167.5C 110.973,167.573 109.973,166.906 109.5,165.5 Z"/></g>
<g><path style="opacity:1" fill="#d2cfc7" d="M 92.5,163.5 C 94.0719,166.215 95.0719,169.215 95.5,172.5C 93.5275,169.916 92.5275,166.916 92.5,163.5 Z"/></g>
<g><path style="opacity:1" fill="#dedbd5" d="M 23.5,167.5 C 27.5,169.5 30.5,172.5 32.5,176.5C 29.1667,173.833 26.1667,170.833 23.5,167.5 Z"/></g>
<g><path style="opacity:1" fill="#d4d1c9" d="M 100.5,168.5 C 102.446,169.254 103.279,170.588 103,172.5C 100.423,171.835 99.5896,170.501 100.5,168.5 Z"/></g>
<g><path style="opacity:1" fill="#dedcd6" d="M 112.5,167.5 C 116.167,169.167 118.833,171.833 120.5,175.5C 117.5,173.167 114.833,170.5 112.5,167.5 Z"/></g>
<g><path style="opacity:1" fill="#d0ccc3" d="M 148.5,170.5 C 147.92,172.749 146.587,174.415 144.5,175.5C 145.08,173.251 146.413,171.585 148.5,170.5 Z"/></g>
<g><path style="opacity:1" fill="#d5d1c9" d="M 12.5,169.5 C 17.7502,173.562 21.9169,178.228 25,183.5C 21.9466,180.919 18.4466,179.085 14.5,178C 16.2072,177.805 17.8739,177.805 19.5,178C 16.5532,175.564 14.2199,172.731 12.5,169.5 Z"/></g>
<g><path style="opacity:1" fill="#d5d2ca" d="M 95.5,172.5 C 97.0075,174.181 98.0075,176.181 98.5,178.5C 96.461,177.089 95.461,175.089 95.5,172.5 Z"/></g>
<g><path style="opacity:1" fill="#dfddd7" d="M 120.5,175.5 C 121.906,175.973 122.573,176.973 122.5,178.5C 121.094,178.027 120.427,177.027 120.5,175.5 Z"/></g>
<g><path style="opacity:1" fill="#dad7d0" d="M 154.5,173.5 C 155.014,174.625 155.347,175.791 155.5,177C 154.576,178.489 153.576,178.656 152.5,177.5C 153.18,176.14 153.847,174.807 154.5,173.5 Z"/></g>
<g><path style="opacity:1" fill="#dddad4" d="M 32.5,176.5 C 36.7743,181.642 39.1076,187.642 39.5,194.5C 39.5,195.167 39.1667,195.5 38.5,195.5C 37.702,188.773 35.702,182.44 32.5,176.5 Z"/></g>
<g><path style="opacity:1" fill="#dcd9d2" d="M 65.5,173.5 C 66.0141,174.625 66.3474,175.791 66.5,177C 65.7248,178.23 64.7248,178.563 63.5,178C 64.2666,176.53 64.9332,175.03 65.5,173.5 Z"/></g>
<g><path style="opacity:1" fill="#d3cfc7" d="M 107.5,177.5 C 107.56,176.957 107.893,176.624 108.5,176.5C 109.5,178.167 110.833,179.5 112.5,180.5C 109.535,180.47 106.535,179.637 103.5,178C 105.679,178.379 107.013,178.213 107.5,177.5 Z"/></g>
<g><path style="opacity:1" fill="#d6d3cb" d="M 190.5,175.5 C 191.848,176.527 192.348,177.86 192,179.5C 190.812,178.437 190.312,177.103 190.5,175.5 Z"/></g>
<g><path style="opacity:1" fill="#d7d3cc" d="M 9.5,178.5 C 10.9063,178.973 11.573,179.973 11.5,181.5C 10.0937,181.027 9.42702,180.027 9.5,178.5 Z"/></g>
<g><path style="opacity:1" fill="#d7d3cc" d="M 99.5,180.5 C 100.906,180.973 101.573,181.973 101.5,183.5C 100.094,183.027 99.427,182.027 99.5,180.5 Z"/></g>
<g><path style="opacity:1" fill="#d8d6ce" d="M 11.5,181.5 C 12.9063,181.973 13.573,182.973 13.5,184.5C 12.0937,184.027 11.427,183.027 11.5,181.5 Z"/></g>
<g><path style="opacity:1" fill="#d7d4cd" d="M 195.5,182.5 C 195.5,183.167 195.5,183.833 195.5,184.5C 192.813,182.606 192.813,181.939 195.5,182.5 Z"/></g>
<g><path style="opacity:1" fill="#cfcbc2" d="M 139.5,182.5 C 139.008,184.819 138.008,186.819 136.5,188.5C 136.461,185.911 137.461,183.911 139.5,182.5 Z"/></g>
<g><path style="opacity:1" fill="#d8d4cd" d="M 101.5,183.5 C 104.167,185.5 106.5,187.833 108.5,190.5C 105.167,189.167 102.833,186.833 101.5,183.5 Z"/></g>
<g><path style="opacity:1" fill="#d6d3cc" d="M 13.5,184.5 C 15.5,185.833 17.1667,187.5 18.5,189.5C 15.8333,188.833 14.1667,187.167 13.5,184.5 Z"/></g>
<g><path style="opacity:1" fill="#d4d1c9" d="M 116.5,186.5 C 116.56,185.957 116.893,185.624 117.5,185.5C 118.333,186.5 119.167,187.5 120,188.5C 120.333,187.833 120.667,187.167 121,186.5C 121.681,188.529 122.014,190.529 122,192.5C 120.269,190.383 118.102,188.883 115.5,188C 116.167,187.667 116.833,187.333 117.5,187C 117.272,186.601 116.938,186.435 116.5,186.5 Z"/></g>
<g><path style="opacity:1" fill="#d3cfc7" d="M 146.5,184.5 C 147.289,184.783 147.956,185.283 148.5,186C 143.03,190.879 142.363,190.379 146.5,184.5 Z"/></g>
<g><path style="opacity:1" fill="#dddbd4" d="M 56.5,185.5 C 57.7125,186.497 57.5458,187.497 56,188.5C 55.5304,187.423 55.6971,186.423 56.5,185.5 Z"/></g>
<g><path style="opacity:1" fill="#e1dfd9" d="M 130.5,158.5 C 131.568,157.566 132.901,157.232 134.5,157.5C 134.5,168.5 134.5,179.5 134.5,190.5C 134.5,193.167 134.5,195.833 134.5,198.5C 133.508,191.352 133.175,184.019 133.5,176.5C 134.12,170.074 133.453,164.074 131.5,158.5C 131.167,158.5 130.833,158.5 130.5,158.5 Z"/></g>
<g><path style="opacity:1" fill="#dddad4" d="M 29.5,187.5 C 32.4284,188.575 33.9284,190.575 34,193.5C 32.4571,191.622 30.6238,190.122 28.5,189C 29.056,188.617 29.3893,188.117 29.5,187.5 Z"/></g>
<g><path style="opacity:1" fill="#d6d2cb" d="M 45.5,191.5 C 45.5,194.5 45.5,197.5 45.5,200.5C 44.5098,194.355 44.1765,188.022 44.5,181.5C 44.8308,173.804 44.4975,166.138 43.5,158.5C 42.0371,170.783 41.3704,183.117 41.5,195.5C 41.5024,203.53 42.1691,211.197 43.5,218.5C 43.8333,218.5 44.1667,218.5 44.5,218.5C 43.4324,219.434 42.099,219.768 40.5,219.5C 40.666,214.156 40.4994,208.823 40,203.5C 38.6244,202.295 37.4577,200.962 36.5,199.5C 39.6939,200.348 40.3606,199.015 38.5,195.5C 39.1667,195.5 39.5,195.167 39.5,194.5C 40.41,182.334 41.0767,170.001 41.5,157.5C 43.1667,157.5 44.8333,157.5 46.5,157.5C 46.1667,168.833 45.8333,180.167 45.5,191.5 Z"/></g>
<g><path style="opacity:1" fill="#dcd9d2" d="M 108.5,190.5 C 110.674,190.75 112.341,191.75 113.5,193.5C 111.326,193.25 109.659,192.25 108.5,190.5 Z"/></g>
<g><path style="opacity:1" fill="#dcd9d2" d="M 160.5,185.5 C 159.167,188.833 156.833,191.167 153.5,192.5C 155.5,189.833 157.833,187.5 160.5,185.5 Z"/></g>
<g><path style="opacity:1" fill="#dcd9d3" d="M 67.5,190.5 C 66.7377,192.262 65.4044,193.262 63.5,193.5C 64.2623,191.738 65.5956,190.738 67.5,190.5 Z"/></g>
<g><path style="opacity:1" fill="#dad7d0" d="M 18.5,189.5 C 21.5113,190.669 24.178,192.336 26.5,194.5C 23.1511,193.831 20.4844,192.164 18.5,189.5 Z"/></g>
<g><path style="opacity:1" fill="#d1cdc5" d="M 139.5,191.5 C 143.88,192.099 144.214,193.099 140.5,194.5C 139.614,193.675 139.281,192.675 139.5,191.5 Z"/></g>
<g><path style="opacity:1" fill="#c8c4ba" d="M 44.5,181.5 C 44.1765,188.022 44.5098,194.355 45.5,200.5C 45.5,201.5 45.5,202.5 45.5,203.5C 44.5128,208.305 44.1795,213.305 44.5,218.5C 44.1667,218.5 43.8333,218.5 43.5,218.5C 43.1714,205.989 43.5048,193.655 44.5,181.5 Z"/></g>
<g><path style="opacity:1" fill="#dcd9d3" d="M 63.5,193.5 C 63.0269,194.906 62.0269,195.573 60.5,195.5C 60.9731,194.094 61.9731,193.427 63.5,193.5 Z"/></g>
<g><path style="opacity:1" fill="#dad7d0" d="M 153.5,192.5 C 150.839,195.502 147.505,197.502 143.5,198.5C 146.494,196 149.827,194 153.5,192.5 Z"/></g>
<g><path style="opacity:1" fill="#dbd8d2" d="M 28.5,195.5 C 31.089,195.461 33.089,196.461 34.5,198.5C 32.1815,198.008 30.1815,197.008 28.5,195.5 Z"/></g>
<g><path style="opacity:1" fill="#d9d6cf" d="M 124.5,182.5 C 126.898,186.403 128.231,190.736 128.5,195.5C 129.72,197.284 129.72,198.95 128.5,200.5C 127.293,194.467 125.96,188.467 124.5,182.5 Z"/></g>
<g><path style="opacity:1" fill="#cecac1" d="M 130.5,158.5 C 130.833,158.5 131.167,158.5 131.5,158.5C 130.548,178.473 130.215,198.473 130.5,218.5C 130.5,218.833 130.5,219.167 130.5,219.5C 129.673,214.349 129.173,209.016 129,203.5C 128.283,202.956 127.783,202.289 127.5,201.5C 128.167,201.5 128.5,201.167 128.5,200.5C 129.72,198.95 129.72,197.284 128.5,195.5C 129.167,183.167 129.833,170.833 130.5,158.5 Z"/></g>
<g><path style="opacity:1" fill="#dcd9d3" d="M 56.5,197.5 C 54.6644,199.588 52.3311,200.921 49.5,201.5C 51.3356,199.412 53.6689,198.079 56.5,197.5 Z"/></g>
<g><path style="opacity:1" fill="#d6d3cb" d="M 133.5,176.5 C 133.175,184.019 133.508,191.352 134.5,198.5C 134.238,199.978 134.571,201.311 135.5,202.5C 137.243,200.962 139.243,199.962 141.5,199.5C 139.571,201.148 137.571,202.815 135.5,204.5C 134.672,209.132 134.172,213.798 134,218.5C 132.989,219.337 131.822,219.67 130.5,219.5C 130.5,219.167 130.5,218.833 130.5,218.5C 132.161,204.696 133.161,190.696 133.5,176.5 Z"/></g>
<g><path style="opacity:1" fill="#e4e2dd" d="M 49.5,201.5 C 48.5423,202.962 47.3756,204.295 46,205.5C 45.8247,210.019 45.3247,214.353 44.5,218.5C 44.1795,213.305 44.5128,208.305 45.5,203.5C 46.6049,202.4 47.9382,201.733 49.5,201.5 Z"/></g>
<g><path style="opacity:1" fill="#dedbd5" d="M 0.5,222.5 C 3.08917,223.419 5.08917,225.086 6.5,227.5C 3.86505,226.527 1.86505,224.86 0.5,222.5 Z"/></g>
<g><path style="opacity:1" fill="#c0bbaf" d="M 95.5,227.5 C 96.2623,229.262 97.5956,230.262 99.5,230.5C 99.9731,231.906 100.973,232.573 102.5,232.5C 102.973,233.906 103.973,234.573 105.5,234.5C 105.973,235.906 106.973,236.573 108.5,236.5C 109.262,238.262 110.596,239.262 112.5,239.5C 113.833,241.5 115.5,243.167 117.5,244.5C 121.837,251.184 124.504,258.517 125.5,266.5C 126.833,268.5 126.833,270.5 125.5,272.5C 124.5,271.5 123.5,270.5 122.5,269.5C 117.984,266.073 112.984,263.407 107.5,261.5C 106.415,259.413 104.749,258.08 102.5,257.5C 101.92,255.251 100.587,253.585 98.5,252.5C 97.6618,252.158 97.3284,251.492 97.5,250.5C 93.7407,242.722 91.074,234.555 89.5,226C 89.8333,225.5 90.1667,225 90.5,224.5C 91.9397,225.952 93.6064,226.952 95.5,227.5 Z"/></g>
<g><path style="opacity:1" fill="#c0bbaf" d="M -0.5,222.5 C -0.166667,222.5 0.166667,222.5 0.5,222.5C 1.86505,224.86 3.86505,226.527 6.5,227.5C 7.26231,229.262 8.59565,230.262 10.5,230.5C 10.9731,231.906 11.9731,232.573 13.5,232.5C 15.9754,235.241 18.9754,237.241 22.5,238.5C 24.5,241.167 26.8333,243.5 29.5,245.5C 29.427,247.027 30.0937,248.027 31.5,248.5C 31.6596,250.153 32.3263,251.486 33.5,252.5C 34.9351,258.741 36.6018,264.908 38.5,271C 37.9056,271.464 37.2389,271.631 36.5,271.5C 35.8333,271.5 35.5,271.167 35.5,270.5C 30.9843,267.073 25.9843,264.407 20.5,262.5C 17.1924,259.529 13.859,256.529 10.5,253.5C 10.573,251.973 9.90632,250.973 8.5,250.5C 5.43157,246.356 3.43157,241.689 2.5,236.5C 2.35407,232.613 1.6874,228.946 0.5,225.5C 0.166667,225.5 -0.166667,225.5 -0.5,225.5C -0.5,224.5 -0.5,223.5 -0.5,222.5 Z"/></g>
<g><path style="opacity:1" fill="#d5d2ca" d="M 191.5,230.5 C 189.236,229.419 187.069,228.085 185,226.5C 184.667,228.5 184.333,230.5 184,232.5C 183.433,229.832 182.933,227.166 182.5,224.5C 186.565,224.897 189.565,226.897 191.5,230.5 Z"/></g>
<g><path style="opacity:1" fill="#d2cec6" d="M 0.5,225.5 C 1.6874,228.946 2.35407,232.613 2.5,236.5C 0.917743,233.124 0.251076,229.458 0.5,225.5 Z"/></g>
<g><path style="opacity:1" fill="#dddad3" d="M 6.5,227.5 C 8.40435,227.738 9.73769,228.738 10.5,230.5C 8.59565,230.262 7.26231,229.262 6.5,227.5 Z"/></g>
<g><path style="opacity:1" fill="#c1bcb0" d="M 73.5,226.5 C 74.1476,235.205 73.3142,243.871 71,252.5C 69.0526,256.276 66.5526,259.61 63.5,262.5C 61.9731,262.427 60.9731,263.094 60.5,264.5C 58.326,264.75 56.6594,265.75 55.5,267.5C 54.4863,268.674 53.153,269.34 51.5,269.5C 49.326,269.75 47.6594,270.75 46.5,272.5C 45.5041,272.414 44.6708,272.748 44,273.5C 43.5012,269.514 43.3345,265.514 43.5,261.5C 44.1667,260.833 44.8333,260.167 45.5,259.5C 47.0075,257.819 48.0075,255.819 48.5,253.5C 48.7086,252.078 49.2086,250.745 50,249.5C 53.0378,245.802 56.0378,242.136 59,238.5C 63.6347,234.375 68.4681,230.375 73.5,226.5 Z"/></g>
<g><path style="opacity:1" fill="#dcd9d2" d="M 95.5,227.5 C 97.4044,227.738 98.7377,228.738 99.5,230.5C 97.5956,230.262 96.2623,229.262 95.5,227.5 Z"/></g>
<g><path style="opacity:1" fill="#beb9ad" d="M 129.5,228.5 C 131.453,234.074 132.12,240.074 131.5,246.5C 131.161,260.696 130.161,274.696 128.5,288.5C 128.255,268.482 128.588,248.482 129.5,228.5 Z"/></g>
<g><path style="opacity:1" fill="#c0bbb0" d="M 161.5,227.5 C 162.161,229.134 162.494,230.967 162.5,233C 162.702,242.118 160.702,250.618 156.5,258.5C 156.5,260.5 155.5,261.5 153.5,261.5C 151.147,262.34 149.147,263.674 147.5,265.5C 144.008,266.41 141.008,268.076 138.5,270.5C 138.158,271.338 137.492,271.672 136.5,271.5C 134.956,271.703 133.622,272.37 132.5,273.5C 132.08,271.674 132.08,269.674 132.5,267.5C 132.833,265.5 133.167,263.5 133.5,261.5C 135.054,254.716 138.388,249.049 143.5,244.5C 147.833,240.833 151.833,236.833 155.5,232.5C 156.891,230.11 158.891,228.443 161.5,227.5 Z"/></g>
<g><path style="opacity:1" fill="#c0bbaf" d="M 42.5,234.5 C 42.5,252.5 42.5,270.5 42.5,288.5C 41.5,288.5 40.5,288.5 39.5,288.5C 39.3334,272.497 39.5001,256.497 40,240.5C 40.1735,236.459 40.6735,232.459 41.5,228.5C 42.4656,230.396 42.7989,232.396 42.5,234.5 Z"/></g>
<g><path style="opacity:1" fill="#d4d1c9" d="M 95.5,227.5 C 93.6064,226.952 91.9397,225.952 90.5,224.5C 90.1667,225 89.8333,225.5 89.5,226C 91.074,234.555 93.7407,242.722 97.5,250.5C 91.7457,242.182 88.7457,232.849 88.5,222.5C 91.6433,222.969 93.9767,224.636 95.5,227.5 Z"/></g>
<g><path style="opacity:1" fill="#dddad3" d="M 10.5,230.5 C 12.0269,230.427 13.0269,231.094 13.5,232.5C 11.9731,232.573 10.9731,231.906 10.5,230.5 Z"/></g>
<g><path style="opacity:1" fill="#dcdad3" d="M 99.5,230.5 C 101.027,230.427 102.027,231.094 102.5,232.5C 100.973,232.573 99.9731,231.906 99.5,230.5 Z"/></g>
<g><path style="opacity:1" fill="#dcdbd4" d="M 191.5,230.5 C 192.756,230.461 193.756,230.961 194.5,232C 193.002,232.585 192.002,232.085 191.5,230.5 Z"/></g>
<g><path style="opacity:1" fill="#dddad4" d="M 102.5,232.5 C 104.027,232.427 105.027,233.094 105.5,234.5C 103.973,234.573 102.973,233.906 102.5,232.5 Z"/></g>
<g><path style="opacity:1" fill="#dedcd6" d="M 73.5,226.5 C 74.7773,227.694 75.4439,229.36 75.5,231.5C 75.0609,237.894 74.2276,244.227 73,250.5C 71.4767,255.919 68.31,259.919 63.5,262.5C 66.5526,259.61 69.0526,256.276 71,252.5C 73.3142,243.871 74.1476,235.205 73.5,226.5 Z"/></g>
<g><path style="opacity:1" fill="#dcd9d3" d="M 13.5,232.5 C 17.0495,233.723 20.0495,235.723 22.5,238.5C 18.9754,237.241 15.9754,235.241 13.5,232.5 Z"/></g>
<g><path style="opacity:1" fill="#dedcd6" d="M 105.5,234.5 C 107.027,234.427 108.027,235.094 108.5,236.5C 106.973,236.573 105.973,235.906 105.5,234.5 Z"/></g>
<g><path style="opacity:1" fill="#d4d0c8" d="M 187.5,243.5 C 185.154,240.614 184.32,237.28 185,233.5C 185.943,236.824 186.776,240.157 187.5,243.5 Z"/></g>
<g><path style="opacity:1" fill="#cfcbc2" d="M 155.5,232.5 C 151.833,236.833 147.833,240.833 143.5,244.5C 146.5,239.5 150.5,235.5 155.5,232.5 Z"/></g>
<g><path style="opacity:1" fill="#dddbd4" d="M 108.5,236.5 C 110.404,236.738 111.738,237.738 112.5,239.5C 110.596,239.262 109.262,238.262 108.5,236.5 Z"/></g>
<g><path style="opacity:1" fill="#dedcd6" d="M 22.5,238.5 C 25.8333,239.833 28.1667,242.167 29.5,245.5C 26.8333,243.5 24.5,241.167 22.5,238.5 Z"/></g>
<g><path style="opacity:1" fill="#cecac1" d="M 11.5,237.5 C 14.8691,244.538 13.5358,245.371 7.5,240C 8.76035,238.887 9.92702,238.72 11,239.5C 11.4643,238.906 11.631,238.239 11.5,237.5 Z"/></g>
<g><path style="opacity:1" fill="#dedbd5" d="M 112.5,239.5 C 115.167,240.167 116.833,241.833 117.5,244.5C 115.5,243.167 113.833,241.5 112.5,239.5 Z"/></g>
<g><path style="opacity:1" fill="#dfddd7" d="M 99.5,240.5 C 101.337,240.639 101.67,241.306 100.5,242.5C 99.7025,242.043 99.3691,241.376 99.5,240.5 Z"/></g>
<g><path style="opacity:1" fill="#cfcbc2" d="M 152.5,240.5 C 153.218,242.246 154.218,242.912 155.5,242.5C 153.389,244.491 152.056,246.491 151.5,248.5C 151.167,248.333 150.833,248.167 150.5,248C 151.867,245.699 152.534,243.199 152.5,240.5 Z"/></g>
<g><path style="opacity:1" fill="#e2e0da" d="M 195.5,242.5 C 195.5,243.167 195.5,243.833 195.5,244.5C 192.813,242.606 192.813,241.939 195.5,242.5 Z"/></g>
<g><path style="opacity:1" fill="#e5e4df" d="M 42.5,234.5 C 43.4794,237.625 43.8128,240.958 43.5,244.5C 43.5,250.167 43.5,255.833 43.5,261.5C 43.3345,265.514 43.5012,269.514 44,273.5C 44.6708,272.748 45.5041,272.414 46.5,272.5C 45.8783,273.627 45.045,274.627 44,275.5C 43.5008,280.155 43.3342,284.821 43.5,289.5C 42.1667,289.5 40.8333,289.5 39.5,289.5C 39.5,289.167 39.5,288.833 39.5,288.5C 40.5,288.5 41.5,288.5 42.5,288.5C 42.5,270.5 42.5,252.5 42.5,234.5 Z"/></g>
<g><path style="opacity:1" fill="#cfcbc3" d="M 128.5,228.5 C 128.833,228.5 129.167,228.5 129.5,228.5C 128.588,248.482 128.255,268.482 128.5,288.5C 128.167,288.5 127.833,288.5 127.5,288.5C 127.666,283.821 127.499,279.155 127,274.5C 126.722,273.584 126.222,272.918 125.5,272.5C 126.833,270.5 126.833,268.5 125.5,266.5C 125.833,266.5 126.167,266.5 126.5,266.5C 127.167,253.833 127.833,241.167 128.5,228.5 Z"/></g>
<g><path style="opacity:1" fill="#e0ddd8" d="M 29.5,245.5 C 30.9063,245.973 31.573,246.973 31.5,248.5C 30.0937,248.027 29.427,247.027 29.5,245.5 Z"/></g>
<g><path style="opacity:1" fill="#d0cdc4" d="M 63.5,241.5 C 64.6006,242.848 65.6006,244.348 66.5,246C 65.2713,247.529 63.7713,248.696 62,249.5C 62.7296,246.979 63.2296,244.313 63.5,241.5 Z"/></g>
<g><path style="opacity:1" fill="#dedbd5" d="M 161.5,227.5 C 162.209,226.596 163.209,226.263 164.5,226.5C 164.322,235.316 163.155,243.983 161,252.5C 160.208,255.106 158.708,257.106 156.5,258.5C 160.702,250.618 162.702,242.118 162.5,233C 162.494,230.967 162.161,229.134 161.5,227.5 Z"/></g>
<g><path style="opacity:1" fill="#d5d1c9" d="M 187.5,243.5 C 189.674,246.515 191.341,249.849 192.5,253.5C 189.793,250.753 188.127,247.42 187.5,243.5 Z"/></g>
<g><path style="opacity:1" fill="#e1dfd9" d="M 18.5,248.5 C 20.6452,248.917 21.3118,249.917 20.5,251.5C 18.1286,251.108 17.4619,250.108 18.5,248.5 Z"/></g>
<g><path style="opacity:1" fill="#dedbd5" d="M 107.5,248.5 C 109.283,249.114 110.616,250.28 111.5,252C 109.592,251.518 107.592,250.851 105.5,250C 106.416,249.722 107.082,249.222 107.5,248.5 Z"/></g>
<g><path style="opacity:1" fill="#e2e0db" d="M 31.5,248.5 C 33.1042,249.287 33.7709,250.62 33.5,252.5C 32.3263,251.486 31.6596,250.153 31.5,248.5 Z"/></g>
<g><path style="opacity:1" fill="#dcd9d3" d="M 117.5,244.5 C 123.213,250.621 126.213,257.954 126.5,266.5C 126.167,266.5 125.833,266.5 125.5,266.5C 124.504,258.517 121.837,251.184 117.5,244.5 Z"/></g>
<g><path style="opacity:1" fill="#d6d3cc" d="M 8.5,250.5 C 9.90632,250.973 10.573,251.973 10.5,253.5C 9.09368,253.027 8.42702,252.027 8.5,250.5 Z"/></g>
<g><path style="opacity:1" fill="#cfcbc2" d="M 48.5,253.5 C 48.0075,255.819 47.0075,257.819 45.5,259.5C 45.461,256.911 46.461,254.911 48.5,253.5 Z"/></g>
<g><path style="opacity:1" fill="#d7d4cc" d="M 98.5,252.5 C 100.587,253.585 101.92,255.251 102.5,257.5C 100.413,256.415 99.0798,254.749 98.5,252.5 Z"/></g>
<g><path style="opacity:1" fill="#d7d4cc" d="M 192.5,253.5 C 193.5,254.167 194.5,254.833 195.5,255.5C 195.5,256.167 195.5,256.833 195.5,257.5C 193.738,256.738 192.738,255.404 192.5,253.5 Z"/></g>
<g><path style="opacity:1" fill="#d3cfc7" d="M 143.5,255.5 C 144.873,255.343 146.207,255.51 147.5,256C 145.919,256.707 144.419,257.54 143,258.5C 142.53,257.423 142.697,256.423 143.5,255.5 Z"/></g>
<g><path style="opacity:1" fill="#e1ded9" d="M 128.5,228.5 C 129.568,227.566 130.901,227.232 132.5,227.5C 132.172,239.012 132.505,250.346 133.5,261.5C 133.167,263.5 132.833,265.5 132.5,267.5C 131.509,260.687 131.175,253.687 131.5,246.5C 132.12,240.074 131.453,234.074 129.5,228.5C 129.167,228.5 128.833,228.5 128.5,228.5 Z"/></g>
<g><path style="opacity:1" fill="#d9d6cf" d="M 10.5,253.5 C 13.859,256.529 17.1924,259.529 20.5,262.5C 15.8955,260.895 12.5622,257.895 10.5,253.5 Z"/></g>
<g><path style="opacity:1" fill="#d1cec5" d="M 25.5,255.5 C 26.7942,256.29 27.9609,257.29 29,258.5C 29.3333,257.5 29.6667,256.5 30,255.5C 30.8365,257.821 31.1699,260.155 31,262.5C 28.7487,260.623 26.2487,259.123 23.5,258C 24.756,257.583 25.4226,256.75 25.5,255.5 Z"/></g>
<g><path style="opacity:1" fill="#dad7d0" d="M 102.5,257.5 C 104.749,258.08 106.415,259.413 107.5,261.5C 105.251,260.92 103.585,259.587 102.5,257.5 Z"/></g>
<g><path style="opacity:1" fill="#dedbd5" d="M 116.5,258.5 C 118.958,258.926 120.124,260.259 120,262.5C 117.929,261.897 116.762,260.564 116.5,258.5 Z"/></g>
<g><path style="opacity:1" fill="#d3cfc7" d="M 43.5,244.5 C 43.8128,240.958 43.4794,237.625 42.5,234.5C 42.7989,232.396 42.4656,230.396 41.5,228.5C 40.6735,232.459 40.1735,236.459 40,240.5C 39.5001,256.497 39.3334,272.497 39.5,288.5C 39.5,288.833 39.5,289.167 39.5,289.5C 38.6733,284.349 38.1733,279.016 38,273.5C 37.2828,272.956 36.7828,272.289 36.5,271.5C 37.2389,271.631 37.9056,271.464 38.5,271C 36.6018,264.908 34.9351,258.741 33.5,252.5C 35.8649,256.424 37.3649,260.757 38,265.5C 38.405,252.825 38.905,240.159 39.5,227.5C 41.1667,227.5 42.8333,227.5 44.5,227.5C 44.8222,233.358 44.4889,239.025 43.5,244.5 Z"/></g>
<g><path style="opacity:1" fill="#d7d4cd" d="M 131.5,246.5 C 131.175,253.687 131.509,260.687 132.5,267.5C 132.08,269.674 132.08,271.674 132.5,273.5C 133.622,272.37 134.956,271.703 136.5,271.5C 135.542,272.962 134.376,274.295 133,275.5C 132.667,279.833 132.333,284.167 132,288.5C 130.384,289.801 128.884,289.801 127.5,288.5C 127.833,288.5 128.167,288.5 128.5,288.5C 130.161,274.696 131.161,260.696 131.5,246.5 Z"/></g>
<g><path style="opacity:1" fill="#d6d3cb" d="M 48.5,262.5 C 50.9732,262.947 51.1399,263.947 49,265.5C 48.5172,264.552 48.3505,263.552 48.5,262.5 Z"/></g>
<g><path style="opacity:1" fill="#dddad4" d="M 63.5,262.5 C 63.0269,263.906 62.0269,264.573 60.5,264.5C 60.9731,263.094 61.9731,262.427 63.5,262.5 Z"/></g>
<g><path style="opacity:1" fill="#dad8d1" d="M 60.5,264.5 C 59.3406,266.25 57.674,267.25 55.5,267.5C 56.6594,265.75 58.326,264.75 60.5,264.5 Z"/></g>
<g><path style="opacity:1" fill="#d9d6cf" d="M 107.5,261.5 C 112.984,263.407 117.984,266.073 122.5,269.5C 117.016,267.593 112.016,264.927 107.5,261.5 Z"/></g>
<g><path style="opacity:1" fill="#dbd8d1" d="M 153.5,261.5 C 152.198,263.822 150.198,265.155 147.5,265.5C 149.147,263.674 151.147,262.34 153.5,261.5 Z"/></g>
<g><path style="opacity:1" fill="#dad7d1" d="M 147.5,265.5 C 144.992,267.924 141.992,269.59 138.5,270.5C 141.008,268.076 144.008,266.41 147.5,265.5 Z"/></g>
<g><path style="opacity:1" fill="#d8d5cd" d="M 20.5,262.5 C 25.9843,264.407 30.9843,267.073 35.5,270.5C 30.0157,268.593 25.0157,265.927 20.5,262.5 Z"/></g>
<g><path style="opacity:1" fill="#dddad4" d="M 51.5,269.5 C 50.3406,271.25 48.674,272.25 46.5,272.5C 47.6594,270.75 49.326,269.75 51.5,269.5 Z"/></g>
</svg>
